<mxfile host="37e5a297-e03c-450d-9718-0c2d4877cf17" modified="2020-09-07T09:03:58.058Z" agent="5.0 (Macintosh; Intel Mac OS X 10_15_6) AppleWebKit/537.36 (KHTML, like Gecko) Code/1.48.1 Chrome/78.0.3904.130 Electron/7.3.2 Safari/537.36" etag="UUsOUkxh1Boc9KGRd3oO" version="13.1.3">
    <diagram id="6hGFLwfOUW9BJ-s0fimq" name="Page-1">
        <mxGraphModel dx="789" dy="635" grid="1" gridSize="10" guides="1" tooltips="1" connect="1" arrows="1" fold="1" page="1" pageScale="1" pageWidth="827" pageHeight="1169" math="0" shadow="0">
            <root>
                <mxCell id="0"/>
                <mxCell id="1" parent="0"/>
                <mxCell id="13" value="" style="rounded=1;arcSize=10;dashed=1;strokeColor=#F59D56;fillColor=none;gradientColor=none;dashPattern=8 4;strokeWidth=2;" parent="1" vertex="1">
                    <mxGeometry x="340" y="258.12" width="420" height="135.75" as="geometry"/>
                </mxCell>
                <mxCell id="12" value="" style="rounded=1;arcSize=10;dashed=1;strokeColor=#ff0000;fillColor=none;gradientColor=none;dashPattern=8 4;strokeWidth=2;" parent="1" vertex="1">
                    <mxGeometry x="340" y="456.25" width="420" height="129.5" as="geometry"/>
                </mxCell>
                <mxCell id="10" value="" style="rounded=1;arcSize=10;dashed=1;fillColor=none;gradientColor=none;dashPattern=8 3 1 3;strokeWidth=2;" parent="1" vertex="1">
                    <mxGeometry x="300" y="190" width="500" height="630" as="geometry"/>
                </mxCell>
                <mxCell id="2" value="" style="outlineConnect=0;dashed=0;verticalLabelPosition=bottom;verticalAlign=top;align=center;html=1;shape=mxgraph.aws3.rds;fillColor=#2E73B8;gradientColor=none;" parent="1" vertex="1">
                    <mxGeometry x="640" y="480" width="72" height="81" as="geometry"/>
                </mxCell>
                <mxCell id="3" value="" style="outlineConnect=0;dashed=0;verticalLabelPosition=bottom;verticalAlign=top;align=center;html=1;shape=mxgraph.aws3.api_gateway;fillColor=#D9A741;gradientColor=none;" parent="1" vertex="1">
                    <mxGeometry x="196.75" y="379" width="76.5" height="93" as="geometry"/>
                </mxCell>
                <mxCell id="5" value="" style="outlineConnect=0;dashed=0;verticalLabelPosition=bottom;verticalAlign=top;align=center;html=1;shape=mxgraph.aws3.lambda_function;fillColor=#F58534;gradientColor=none;" parent="1" vertex="1">
                    <mxGeometry x="360" y="290" width="74.5" height="72" as="geometry"/>
                </mxCell>
                <mxCell id="6" value="" style="pointerEvents=1;shadow=0;dashed=0;html=1;strokeColor=none;fillColor=#4495D1;labelPosition=center;verticalLabelPosition=bottom;verticalAlign=top;align=center;outlineConnect=0;shape=mxgraph.veeam.2d.proxy;" parent="1" vertex="1">
                    <mxGeometry x="360" y="481" width="80" height="80" as="geometry"/>
                </mxCell>
                <mxCell id="7" value="" style="outlineConnect=0;dashed=0;verticalLabelPosition=bottom;verticalAlign=top;align=center;html=1;shape=mxgraph.aws3.ec2;fillColor=#F58534;gradientColor=none;" parent="1" vertex="1">
                    <mxGeometry x="640" y="279.5" width="76.5" height="93" as="geometry"/>
                </mxCell>
                <mxCell id="8" value="" style="outlineConnect=0;dashed=0;verticalLabelPosition=bottom;verticalAlign=top;align=center;html=1;shape=mxgraph.aws3.cloud_2;fillColor=#F58534;gradientColor=none;" parent="1" vertex="1">
                    <mxGeometry x="150" y="120" width="55" height="55" as="geometry"/>
                </mxCell>
                <mxCell id="9" value="" style="outlineConnect=0;dashed=0;verticalLabelPosition=bottom;verticalAlign=top;align=center;html=1;shape=mxgraph.aws3.virtual_private_cloud;fillColor=#F58534;gradientColor=none;" parent="1" vertex="1">
                    <mxGeometry x="270" y="160" width="79.5" height="54" as="geometry"/>
                </mxCell>
                <mxCell id="14" value="" style="outlineConnect=0;dashed=0;verticalLabelPosition=bottom;verticalAlign=top;align=center;html=1;shape=mxgraph.aws3.vpn_gateway;fillColor=#F58534;gradientColor=none;" parent="1" vertex="1">
                    <mxGeometry x="730" y="430" width="39" height="42" as="geometry"/>
                </mxCell>
                <mxCell id="15" value="RDSproxy" style="rounded=1;whiteSpace=wrap;html=1;" parent="1" vertex="1">
                    <mxGeometry x="364.5" y="561" width="71" height="20" as="geometry"/>
                </mxCell>
                <mxCell id="16" value="API Gateway" style="rounded=1;whiteSpace=wrap;html=1;" parent="1" vertex="1">
                    <mxGeometry x="180" y="490" width="110" height="20" as="geometry"/>
                </mxCell>
                <mxCell id="19" value="" style="outlineConnect=0;fontColor=#232F3E;gradientColor=none;fillColor=#C7131F;strokeColor=none;dashed=0;verticalLabelPosition=bottom;verticalAlign=top;align=center;html=1;fontSize=12;fontStyle=0;aspect=fixed;pointerEvents=1;shape=mxgraph.aws4.role;" parent="1" vertex="1">
                    <mxGeometry x="376" y="268.56" width="38" height="21.44" as="geometry"/>
                </mxCell>
                <mxCell id="20" value="" style="rounded=1;arcSize=10;dashed=1;strokeColor=#ff0000;fillColor=none;gradientColor=none;dashPattern=8 4;strokeWidth=2;" parent="1" vertex="1">
                    <mxGeometry x="340" y="652" width="420" height="129.5" as="geometry"/>
                </mxCell>
                <mxCell id="21" value="" style="outlineConnect=0;dashed=0;verticalLabelPosition=bottom;verticalAlign=top;align=center;html=1;shape=mxgraph.aws3.vpn_gateway;fillColor=#F58534;gradientColor=none;" parent="1" vertex="1">
                    <mxGeometry x="740" y="630" width="39" height="42" as="geometry"/>
                </mxCell>
                <mxCell id="22" value="ap-northeast-1c" style="rounded=0;whiteSpace=wrap;html=1;" parent="1" vertex="1">
                    <mxGeometry x="610" y="248.56" width="120" height="20" as="geometry"/>
                </mxCell>
                <mxCell id="23" value="ap-northeast-1c" style="rounded=0;whiteSpace=wrap;html=1;" parent="1" vertex="1">
                    <mxGeometry x="610" y="652" width="120" height="20" as="geometry"/>
                </mxCell>
                <mxCell id="24" value="ap-northeast-1a" style="rounded=0;whiteSpace=wrap;html=1;" parent="1" vertex="1">
                    <mxGeometry x="610" y="456.25" width="120" height="20" as="geometry"/>
                </mxCell>
                <mxCell id="25" style="edgeStyle=orthogonalEdgeStyle;rounded=0;orthogonalLoop=1;jettySize=auto;html=1;exitX=0.75;exitY=1;exitDx=0;exitDy=0;entryX=0.5;entryY=1;entryDx=0;entryDy=0;" parent="1" source="23" target="23" edge="1">
                    <mxGeometry relative="1" as="geometry"/>
                </mxCell>
                <mxCell id="30" value="Internet&#10;gateway" style="outlineConnect=0;fontColor=#232F3E;gradientColor=none;strokeColor=#232F3E;fillColor=#ffffff;dashed=0;verticalLabelPosition=bottom;verticalAlign=top;align=center;html=1;fontSize=12;fontStyle=0;aspect=fixed;shape=mxgraph.aws4.resourceIcon;resIcon=mxgraph.aws4.internet_gateway;" parent="1" vertex="1">
                    <mxGeometry x="666" y="160" width="46" height="46" as="geometry"/>
                </mxCell>
                <mxCell id="35" value="" style="endArrow=classic;html=1;entryX=0;entryY=0.5;entryDx=0;entryDy=0;entryPerimeter=0;" parent="1" source="47" target="2" edge="1">
                    <mxGeometry width="50" height="50" relative="1" as="geometry">
                        <mxPoint x="730" y="510" as="sourcePoint"/>
                        <mxPoint x="780" y="460" as="targetPoint"/>
                    </mxGeometry>
                </mxCell>
                <mxCell id="36" value="" style="endArrow=classic;html=1;exitX=0.5;exitY=1;exitDx=0;exitDy=0;exitPerimeter=0;" parent="1" source="7" edge="1">
                    <mxGeometry width="50" height="50" relative="1" as="geometry">
                        <mxPoint x="730" y="510" as="sourcePoint"/>
                        <mxPoint x="678" y="456" as="targetPoint"/>
                    </mxGeometry>
                </mxCell>
                <mxCell id="41" value="" style="endArrow=classic;html=1;" edge="1" parent="1" target="6">
                    <mxGeometry width="50" height="50" relative="1" as="geometry">
                        <mxPoint x="400" y="362" as="sourcePoint"/>
                        <mxPoint x="400" y="458" as="targetPoint"/>
                    </mxGeometry>
                </mxCell>
                <mxCell id="44" value="" style="outlineConnect=0;fontColor=#232F3E;gradientColor=none;fillColor=#C7131F;strokeColor=none;dashed=0;verticalLabelPosition=bottom;verticalAlign=top;align=center;html=1;fontSize=12;fontStyle=0;aspect=fixed;pointerEvents=1;shape=mxgraph.aws4.role;" vertex="1" parent="1">
                    <mxGeometry x="360" y="458.56" width="38" height="21.44" as="geometry"/>
                </mxCell>
                <mxCell id="46" value="" style="endArrow=none;dashed=1;html=1;entryX=0;entryY=0.5;entryDx=0;entryDy=0;entryPerimeter=0;" edge="1" parent="1" target="2">
                    <mxGeometry width="50" height="50" relative="1" as="geometry">
                        <mxPoint x="400" y="360" as="sourcePoint"/>
                        <mxPoint x="540" y="380" as="targetPoint"/>
                    </mxGeometry>
                </mxCell>
                <mxCell id="47" value="" style="shape=image;verticalLabelPosition=bottom;labelBackgroundColor=#ffffff;verticalAlign=top;aspect=fixed;imageAspect=0;image=data:image/png,iVBORw0KGgoAAAANSUhEUgAAA8AAAAH4CAYAAACFYIRyAAAABGdBTUEAALGPC/xhBQAAAAFzUkdCAK7OHOkAAAAgY0hSTQAAeiYAAICEAAD6AAAAgOgAAHUwAADqYAAAOpgAABdwnLpRPAAAAAZiS0dEAP8A/wD/oL2nkwAAAAlwSFlzAAAASAAAAEgARslrPgAAgABJREFUeNrs3Xd4XNd9Jv739ukz6B1EY++kSKr3LrnJRS5yL3GRezZxdpPfZneTzdqJ4zh2HDtxiXuTLRdZvZPqFMXeKyrRgem3//4YkiKIATEzGIAA+H6eR48TDmbmzrn3ztz3nvM9R9jbttIFERERERER0TwnsgmIiIiIiIiIAZiIiIiIiIiIAZiIiIiIiIiIAZiIiIiIiIiIAZiIiIiIiIiIAZiIiIiIiIiIAZiIiIiIiIiIAZiIiIiIiIiIAZiIiIiIiIgYgImIiIiIiIgYgImIiIiIiIgYgImIiIiIiIgYgImIiIiIiIgYgImIiIiIiIgYgImIiIiIiIgYgImIiIiIiIgYgImIiIiIiIgYgImIiIiIiIgBmIiIiIiIiIgBmIiIiIiIiIgBmIiIiIiIiIgBmIiIiIiIiIgBmIiIiIiIiIgBmIiIiIiIiIgBmIiIiIiIiIgBmIiIiIiIiIgBmIiIiIiIiBiAiYiIiIiIiBiAiYiIiIiIiBiAiYiIiIiIiBiAiYiIiIiIiBiAiYiIiIiIiBiAiYiIiIiIiBiAiYiIiIiIiBiAiYiIiIiIiBiAiYiIiIiIiAGYiIiIiIiIiAGYiIiIiIiIiAGYiIiIiIiIiAGYiIiIiIiIiAGYiIiIiIiIiAGYiIiIiIiIiAGYiIiIiIiIiAGYiIiIiIiIiAGYiIiIiIiIGICJiIiIiIiIGICJiIiIiIiIGICJiIiIiIiIGICJiIiIiIiIGICJiIiIiIiIGICJiIiIiIiIGICJiIiIiIiIGICJiIiIiIiIGICJiIiIiIiIAZiIiIiIiIiIAZiIiIiIiIiIAZiIiIiIiIiIAZiIiIiIiIiIAZiIiIiIiIiIAZiIiIiIiIiIAZiIiIiIiIiIAZiIiIiIiIiIAZiIiIiIiIgYgImIiIiIiIgYgImIiIiIiIgYgImIiIiIiIgYgImIiIiIiIgYgImIiIiIiIgYgImIiIiIiIgYgImIiIiIiIgYgImIiIiIiIgYgImIiIiIiIgBmIiIiIiIiIgBmIiIiIiIiIgBmIiIiIiIiIgBmIiIiIiIiIgBmIiIiIiIiIgBmIiIiIiIiIgBmIiIiIiIiIgBmIiIiIiIiIgBmIiIiIiIiBiAiYiIiIiIiBiAiYiIiIiIiBiAiYiIiIiIiBiAiYiIiIiIiBiAiYiIiIiIiBiAiYiIiIiIiBiAiYiIiIiIiBiAiYiIiIiIiAGYiIiIiIiIiAGYiIiIiIiIiAGYiIiIiIiIiAGYiIiIiIiIiAGYiIiIiIiIiAGYiIiIiIiIiAGYiIiIiIiIiAGYiIiIiIiIiAGYiIiIiIiIGICJiIiIiIiIGICJiIiIiIiIGICJiIiIiIiIGICJiIiIiIiIGICJiIiIiIiIGICJiIiIiIiIGICJiIiIiIiIGICJiIiIiIiIGICJiIiIiIiIAZiIiIiIiIiIAZiIiIiIiIiIAZiIiIiIiIiIAZiIiIiIiIiIAZiIiIiIiIiIAZiIiIiIiIiIAZiIiIiIiIiIAZiIiIiIiIiIAZiIiIiIiIgYgImIiIiIiIgYgImIiIiIiIjmNJlNQERERDQLCAIESQIUGYIkQRBFQBABIfMYBAFwXcDFqf914Dou4NhwLRuuZQKOy3YkImIAJiIimt1EnxdqWysEZeo/zU4sDv3IMcC2C38RSYJSWwO5srygp7tpHfqxE3CTyfxzoCJDW7ok/7ZwXJjtHbAGh/JsfBFKbTXkqsoCGtuFfvAQnESysHYWBEjhEKTSUsjlpVBaW6AtXQSlrg5KWRmkUBCCqkJUFWSSMOBaFpxUCnY8Dns0CvPkSRhHj0HfdxBWbz/s6CjsgSG4hsETi4iIAZiIiGiWEQR4VixD/X98E5LfP+WXS+3Zi/b3fQxONFr4JikKQne9EZWf+rNMz2OejPYOdH3pr5F+5bW8n6s0NKDhP/8NcmlJfqHbNNH7f/8Rwz/7FeA4uX9WTUXJxz6Esne9I+9ttYaH0fGhTyC9e2/eIV9Z0AjP4kXwbroE3jWroC1ohOjzFbzPXNOE2T+A9KHDSL3yKtJ79kHffxD24FCmx5iIiBiAiYiILnj+lWVoK5cXJfwCgFJbA6W+FvrewgOwm07Dau+AnUwWtF2C1wu5srKg91aXLobo0QoK7UpjA0SfF048kfvzJAlKbXVB22p2dsNJJPJ6jrygAaFbbkTgqiugLVoIORIGxKlPyyIoCtTaGqi1NQhefimM7m6kd+3B0H/8AOn9BxmCiYgYgImIiGZBAFZVeC9ZV7TXE71eeDesg753/5Rex+wfgDUwWFAAFj0alPLChk9rbS0Q5MIuUZTmRojBYN4BWK0qLACnDx+GPZrDjYZTQ539112NkrvfBm3xQkiBwPQdU4oCbcECKJWVGPnZr3mSERExABMREc0OYtAP75JFRQ0/vtUrMXJ60qRCA/DJkzB7TkJb0FhAAPZArigrLAA3NQKSVFgArquD6M9vGLEY8EOuyD+su5YFfc/+yQOwKEJbtgSlH3ovgtdcBSkYLGhYeWH7sBf26Ch7f4mITn8lswmIiIguLM/a1ZBLSosXgCUJakszpAInsDrN6uqB2d6RVz3tmW2QZcjl5RB83rzDqFJbm5kNuQBqZSVEb37vqbS2QNTyH3JtDQ/D7OmZdLIx34Z1qP6bv0TkDXdACoVmLPwCgH7kKOwp1IITETEAExERUVF516yCoCpFfU25tBTasqVTeg03lYbZ1Q1HL2A2YUGAVFkOqTy/XmC5aQGkkkjB2ywFA5nZnPOoqVWbGgE5/8Bt9vXD6us//75dvwbln7sX3jWrZ/7Act3MJFgjDMBERAzAREREs4Dg0eBZvKjgmtcJg2A4BM/ihVPubTQ6OuEk4gWHcLksv55trXkBpOAUamNFEeritrzaU6mvK6jH2erohNnZNeENAM+q5Sj/9CfgW7Mqs6bvDLNjMRjHTsDV0zzRiIgYgImIiC48bflSKPV1RR8WK3q98CxsgxgOTul19EM5TvKULYRHIpAikbyeo9bVQpzibNhaW2teAVitrcm75tg1DBjHjsMeHM4e/qurUPrh98N/6cai39zIldnbB/NkL8DyXyKi17+f2QR0QQ/AinIEb76RDUE0T+gHDyH5yqtsiDx4li2FXFJS/BcWBKhtLVCbm5B+bWfhIerocVh9/dBamvMO6VI4BCmUewAXVBVKTXVB9bhjAm19fc6BVvB6MrXKefbQ2vEE9BMdWSeXEhQFgRuvQ+iG6wquZS5KAO7ohNnRyZOMiIgBmGYLpbEe1X/739kQRPPE8E9/yQCcT0b1aPC0Nuc9a3HO37HVVVCqq5FG4QHYNUwYnV3w2XbePZmi15sJ95I06URRACBVlkOuq5nymrhKVWXONdVKfS2kcCjv97BjMehHj2X/HOVliLz1TRCmGOSnwrUsGMfbYff380QjImIAptnIicXhWhYbgmgOEoOBCzbMcy5TGuqhLmzNvZfwdG9jjj2xciSSef2nPXBThdeBpg8dhmtZee9jQZIg19dC9HnhxCavI1aqqyBXV0/9eAz4oTQvgD04lEMArs9/yLXrwu4fgHnwcNaHAzdfD625eWoB1rbhGiZc04ATi8GOJ+AaJiBLkLzezDmnahBkCYKsQJClMceFk0hAP9EO17J5ohERMQDTbNT1+b9EaucuNgTRHNTwn/8G7+qVbIg8qQsaoeaxxq45MAAIIpRcZ1YWRXjXroZUWgKrq6fwALxrD1zDADyegkK+6PfnFIDl8jIoZWVTbldBUaAtXYz01tcmf8/qKoh5LtXk2jb0o8fgJJLj39vvQ/DaqyF6Cuz9dRyYJ3uR3L4DiZdeQXr7Tlgn+wDLhgsXAgRAAARNg9K8AGprM7SFbfAsWgilvg5yaQlETYM9GoV+6DBPMiIiBmCarex4DPbwCBuCaC5iL1P+IU1VoLY0Qc4x8LmmidTuvZBCwdwDMADPwjZI4fCUArB55Dis4ZHMGrb5XmhUV+YWMCUJckVFQcORx7WtJEFtqM8toFeUQ8gz2LuWhfQE4dKzagXUpgUFDeN2TRPJbdsx+KOfIvnUZrimef7Trq8fqZe2Zu51BALwrFsF75rV8G+6BE4qDePAIZ5oREQMwERERBeeGInAs3J5zsOKnWQKqW3b4WlrBdatzX0YdHkZlKZG6AcO5VSHO1EwMzo7oeXRW33m/UtLc6qFFf0+KC1NEJQirIcsSVBrJh9KLSgK5LJSiHm+p2uYSO/cnT0AL2orLMS7LlI7d6P/X76J1Gs7895XTjyO5LPPI/ncS4g9/BikcAhONMYTjYjo3N8bNgEREdHMk0si8CxdnPPf2/E4Urv3ZNblNYycnydIEnwb1+c8KVTWbGaZSBfYmyiXlED0Tt4DLAWD0JqbitK2gihCqa6COMl6wlJFGeSa6rx7a62BAZjH27O8sQClpgaiL/9JzazRUYz88UGktu8q+EZF5kCxYRw8jNQr23iSERExABMREc2GX18RSmMD1Lq63HPN0DCM/YdgtLfDiSfyejvfqlUQ1cJnJHZNE/r2XYDj5P9RT9WqQj7/RF+i3w+loa54TRyJQGk5f6CWysshledfc5w+chSuPv4mhBgMQK4oL2jpI7t/AMkXXwI4GSQREQMwERHRfCKoKnyXbcx9VmXHgdnTA3tgEPrR47Bj+Q1tVerrINfXFr7BtgOzvQPWyEhBT1dbmiBI5/msggApEoJSWVm8Cxy/H8okdcBySaSgNZjTe/Zlrc8VgwGIoUBB2+voOuzBYZ4cREQMwERERPMsACsyvMuW5vz3rmVDP5EZcmsePZ73hIGi1wPP+jVT2mYnmYLRc7Kg5yo11eftFRUkCUpzE8QCZpme+DN7oVSdP1BLoVDeE3u5pgl99164VpYJqhQFkAsbai56PJAry3lyEBExABMREc0vcm1NZqbgnAOwCf3UmrNOLA6joxNuHnWigqLAt2JZzhNnZWPHYtCPHC0sANfWANJ5LjkUGdryJcW9wPF6oFRWTPyZJRFyWQmkQH5rAJt9fbB6+wDHzXKXwAFcp6DtlcrL4N2wHihg+DQRETEAExERzVq+SzdA9Oc+UZKb1mHs3nvm/08fPgI3j1pRQZKgtbUVVO96JtuNjMLYuz+v4H0m31ZVnne4tyDJ0Jqbc7gRYMFOJHLaBkGSoNTXQarI/pnFQAByAcsVGcdOwJlgCLoTi+e03nE2cjiMkre9Bb4rLyvOTNhERMQATERENBt4V6/KK+QYfX2w+gbO/P/67j3AJGvEjgtYFeXwrFpR8Da7lgWz+yTs0Wjez5WCIUgVEw/vFTQVav3kE2DZsRiM9g64Oc6CLVdVQq6syH4B5PdBqc9z0i3XRXrfAdgjo9kD8GgU1sm+gm4SQBDgXb4MlV/8DAK33ZTb2slERMQATERENJtJlRXQmhrzmik4M+T59R5f49BR2Hn2NEqhILTWliltuzU0BGtwMP9sJ8tQWpsmfFxpqMupFteOxmB0duUcgKXSEkilpdkvgLzezBDpPDjpNIzjJ+AkUxP8gQOjsxNOIlFYAwsCvEuXoPLzn0bpxz8MpbWZJwwREQMwERHR3OVZvWLCXsmJ6AcPjRny7CQSMDq78vvB93qhLWqFGA4VvO1m90mYhUyEJUtQGxomfFhbvjSnHnFraAjpI0fh6Dn2AEcikCOR7O3h8UCuyG/SKXNgANbJXsB1J/yb1I7dsAYGp3SMqPV1KPvAe1H7lb9D6ac+CqWxHoKm8uQhImIAJiIimku/uiK8ixdBCoVzfopr20hv3wXXfD0Au5aF9KFD+b23IEBtbYGSx+Rb57K7e2AcPZ73EF9BkjITYU0U+FqaIciT94jbfQPQ9x2Aq6dzel8pEIBSXQlBkce1hRgO5b0EktnVA6O7+/w3K/bsQ3L7zrxqtCe6YeFbuQIVn/gY6r/zDZR87IPQli7O3MCYwmRmREQMwERERDQjpNIItEVtED1azs+x+gdOzTp81uzCpon0jt3n7YnMGjTr63KqtT1fGDc7uyYeAjxRABZFKBUVEwZzraFh8iHhjgPr5EkYe/fDSaZzfGMBcksTxGBw7D/LEtTW5ryGocNxYJ5oh9XVM0lKtzH6xz/lvVTVRNsvaho8ba2o/NTHUf/Nr6L8s59E4LqrIUbCPKGIiBiAiYiIZi9lQWOmBzaPHjy9Y3xNqWvZmfWA864DDkFtaYIwhfV2C6pxFUXIpSUQ1PHDnKXyssz6t5PMxuzoOqyBQVg9J+HEY7mH/ro6iL5zZtyWZCjnGZKd9f3TOszOLripycO3vm0nok8/U9RjR5AkqI2NKHvPO1H1N19C1Ze+iMD110DMcxknIiIGYCIiIpp+gpDpga2rzetp+oHssw7b0SiMzs78NkEU4V29ElJppOCPoR88POEsyOe94AgFIWcZBq22tUAKT96b6aRSMPr64OoGrKHhsT3i57vpUF01bkZlQRKh5Lkf7HgM6WPHcwvLqRRGfn4fUnv25t1Ln8vNBLW+DuE3vwHVf/s/UP0P/wveyzdy1mgiIgZgIiKiWfSD6/dDW74U0jnDcScLUvreA1nXlrVHo9APHs57O7RFbRNODJULq6sHZk9PzgH09c/vyx6AG+oh+ifvxXQSSZinhh9bA4Nwcw3AFeVZeoAlqDVV+QXg4REY+w/m9seuC2Pvfgx88zvQjx7Lu61yupkhSVBqqhG66QbU/eM/oOzTn4Da1Mg1hImIGICJiIguPKmsBN7VK/Ma/mwOnKr/zdKL6IxGMxNC5TnZklJVBaWlCcin/nXMGzvQT7TnPRGW6PFAyTLrslJTDencgJrtbeNxWO0dmXbpzX2tXdHvh1xbDUivX/KIqprfDNCOA7OrB2ZH7jNvu7aNxDNbMPBv38nM2F3snuCzg3BlBco+cA+q/+/fwn/z9eMDPxERMQATERHNaAAOh6E1N+X1HKunF+bJ3uwBy7JgdvfAHs1vOLIgivCuXzulnkL98JG8g7egaePW5BV8Xig11Vlrg8d+WBf28AisvoFMu5w8mVevqrqoDYL8+kzQUnVVXiHRtW3oJ07k3ZPrmiZijz2JgW/954T7sWhBWJbhv2Q9qr74WYTvvguCpvGkIyJiACYiIpp5gixDW7EMcjiPmXsdB8ax4zA7Jq7zNfv6YPb157093hXLIU5hXVl9x264up7fBYemQS4du+yQUlOdGRY9Sa+4a9swunuAU72+xrETY5aFmozSUA9Bej0AK63NYwJxLkE2vXd/QW3lpnVE//QQev/vPyJ9znrOxT/QBKgN9Sj/sw+j9GMfhOhlXTAREQMwERHRTAdgTYX/so2TznQ8Jv+mUjCOHT/vrMNmRxfMEx15b4+2oBFyXU3Bn+d8PdMTtoGiQC4rhXDWElByVSWU6slrcV3bhnHixOuf+3h7XjNRq7U1Y4ZAq41jA/Gk+yKZQvq1HQW3l5vWEX/sSXT/1f+H0QcfyUwiNk1DogFALitD2fvejZKPvB9iKMgTkIiIAZiIiGgGf2z9PniXLsnrOXY0lplA6Xx/0z+QCcmGmV8Y9Xrg3bih8EBnmTnPiHw2qbICUnnZ60GttHRcr3D2xG1BP3TkrPe3YA4M5Py+SmXlmB5ftXpsTfBkjK4u2EMjUzoGXNuGvnMPev/+y+j/5r8jdeBg3nXUebV1JILS99yN0FveAIE9wUREDMBEREQzRV20EHJZaX4BeGQU+oFDk4ezzi7YyfzW5RUUBd5lSwr+PK5lQT+U/wzUUiQM6dQM1IIsQ64ohxgITPo8J63DOHjkrMZxYPbm3gMthUKQzmp/ubwMQh698ekjRwG7OEOXnaERjPz0V+j9+69g5L77YQ0OTltvsFxWhpJ33w3P0kV5Tb5GRMQATERERAXzbVgPQc295tZ1HBgdnbBO9k0ezg4fgT0azS8ASxK01mbIFWWFBWDThL5zd971rFIoBCkcylyABANQF7ZAyGE2aqu/H85Zn9G1bZid3XkFfqW1OfO+oSDksrLch6O7LtK79sA1zaIdD65lIfXSVvR/9V/R9cW/wvAfH4Q1NDwt9cGepgWIvOduiAE/T0QiIgAym4CIiGj6CKoK74pleU26BMuG0dUFKTL5pFl2/8CYcJjzBUBlBbSVy2E9+Wz+H8pxYfUNwOzrz9TX5hyAg2fWQRYDASgLFuT0vPSRY2PDoWVm1uR13dx6NiUJamMDEgDk+jqIwUDO22wnkzD27M9r0q1cg7U9PILkCy8jvWMXRlcsRfhNb4BvzWoodTXFm8BKFBG85ipEN6xDopB9TUTEAExERES5Uhe1QWmoz2sCLIgCPCuWo+Ivv5BbsCwrzT0Mnn5OOAzPooUFhyInHofR0ZlXABb9foj+TE+k6PNCra3O6Xn6gYNjArBr2TCOnYCTTucUFAVJhFKVmWxLrq7MK1yaHV2wo9HpO0AcB048gdSLW5Heuh3akkUIXHc1/NdfA++ihXmNHJiw3QMBhO68Hclnn5/eWaiJiBiAiYiILm7a0kU59eSOCWyyjMCG9cCG9dO2XaLHA7W1GWIoCCcay/v5diwO49hxYFPuk2lllkKKQJBliD5fZijyJFzbhr53P1xr7BBkJ5GANTgItb4+hzcWz9Rgy6VjZ6KeNHwfOwY7FpuRY8W1LKR370V6/0HEtzyPwNVXInT7LdCaFuR3A2XcDQAJniWLoLQ2wThwmCclEV3UWANMREQ0TQRFhmdh25lhv7Nr4wSorS1QmxYU9HQnGoNx4BBcw8jrPeX6OojhINTmJogez6RPsQYGYPX1A87YiaKcVCrnpZgEUYRcXgZIEuSSEohqbgHYdRzoe/fDGRmd2X1jWUi/thOD//lf6P7iX2H4vt9mQvgUJsuSy8vgWbmCJyURMQCzCYiIiKaH3FAPbfGi/Op/Z5BaVwulvq6wJzsOzJO9sIaH83qaVF0JMRiCmuPMxHp7B5z4+FmunVgcxvH2nIO3FAlDrq7M9EBruQ0rtkdHYXR05r3MVLG4ySTSe/ah78tfQ9/XvgGjq7vgECz5A9AWNHI2aCJiAGYTEBERTVPAXNAItalx9gb0SATawhYIOfTEZmP29cHs7c/rOUp5OcSAD2pjQ05/rx88nLUG14nFYR4+mvNauqLPB6V5AaSSkpxvSJi9fTn3Mk9fCnbhRGMY/dX9GPjGt2F0dxf0MoKqQK6qhOj18MQkIgZgIiIiKi5BkqDW10EpL5/FVwEitJXLIZVECnq61d0DK89AJkUiEL1eKJWVk2c/w4B5+GjWHmDXsmD29WV9LOv+0DSorS0Q8/ismc93clbsKlfXEXv8ScQefwqOrhe2u0NBCKEQT04iYgAmIiKiIv/ARsLQVq8oyiy+08mzsC3vSbpOs4dGYLZ35rVGrlwSgRQMQq6Y/MaANTICs7cPmKCX1xocgjU0lGMAVqE2L4AUzu2zupYF4/iJTP3xLOFEY4g9vRnWwGBBzxc8Wl4TgBERMQATERFRTqTSEnjnwKRDanU11JYmQJIKSGQO9I4O2Ilk7u0SCEBbsQyi3zfp35one2GenLgH1uzrh9nXl9sFj6pBbWyEFM6tB9RJJKCfaJ8wfF8oxpGjBc3anUn1mNJEWkREDMBERESU5ddVhFJbA63QCaZmeFt9Gy+BoCqFBbLjJ+Dks0yQIMC3YR3EHHrGzc4uWF09Ez5udffA6sxtYihBVaA11Oc8I7cdjUE/fHTW7S5XNwCnsFDuptNw0zrPTyJiACYiIqLiERQF3kvWzvrhz6d5li6BIBcYgA8dhZ3nMkHepUsnnYjKNU2YHZ2wh0cm/ptkCmbPyZxmaRZkGUpNNeQca4DtoWGYh47Mun0l11ZD8PkKeq4TjeV3s4KIaB6S2QRERERFDsCqAu+aVYWFlGQKbiGTHIkiRJ8PgpL/T7va2AC5thrGgfzDkT00DLOzC57lSyGIud1Xz2UYsp1IwGjvnLR31+w5CTuZhJzD0kailuP6v7YNo6Mz72B/9r4QNPVUb61TvANLkuBbtxZyWWneT3VNE1b/ANxUmicoETEAExERURF/XCvK4WltzT/8Ggb6/+WbGP39A3nXasqVFaj4b59H8Jor889rfh+8l26AceBQ/h/WdZE+cgRB61qgiD3edjSK9JHJhyAb7R1wEgmgwJmss34ky0Lq4MGC62XV1mZE3nM3Ek9vhnH0GKze/sJuapxFUGR4N21A+M135jyMe8yxlUjC6OxiDTAR8TeaTUBERFRcnk2XQAz4836e1T8A/fgJ2EPD+QecVAqpHTsRuOrynHtiXw9XCnwrlqPA/k6k9x+Ea5rFG/LturAHhnIagmwePpoZJl3MemvDRHr7rsL3//q1KLnrTYi86U6k9h9AcvPzSO87AONEO6yu7kzPcD43KMIh+K+5EqUfuAe+FcsBQcj/2BoeRnrPXp6cRMQAzCYgIiIqLt+K5RCU/Gtqzd7zz3p83syY1mEcPQY7GoUcieQXgEURWvMCSOVlsAtYYsfYewBOMgXR7y9K+7mOA7O7O6fZjq3BIVgDA5mhxmJxpjaxo1GYR44V/HyttRmCLEP0ehG4ZD38a1bD7O2DcaId5tHj0Ns7YHR2wuzqhtV9MvM5zx4qLQgQgwEoLU3Q2lrgW7cW/isug1pbU9gGOQ6Mo8dgzMJJvYiIGICJaF4QPB4I0viLUde04BoGG4jmLTEShtbWCiHfZYVcF+bR47DaOwt+b7O7B2Z3T94BGIIAubIS2splSD61Of/AODIKo7s7p7V9c2JZuc/A7LrQOzoRsO28e74nkj52HE4yVeABIEJb0Dhm/wuyDLWuFmpdLdxNG+CkUnASCTiJJJxkEk4sDiedhmsYECQJguaBFA5CDIcghTL/CYUsU3U6/6bSiD29mfW/REQMwERTDHmqCrguXNNkY5yj7BMfgdLSNO7fk5ufx+ivfssGonnLs3ol5OqqvIepOskk9KPH4OSxpu64AHy8HcbRY/AuXZL3+0vhEDyLFiH59Jb860TtTGD1rV5VlDZ0TROpXbtz/nv90BG4llVQr3vWALxvf8Hf60pdDZSa6gl7owVJghQIQAoExoR4uC5cAMKpGxKFDHOeSGrfPsQfe5InJxERAzBR4cRQCKE7b4XdP4D4s1vyruma7wKbNsK7fs34C9vB4YLrDInmRABesghyJJz38+xYDPrRY1N6b3t4BPrBI3BuSEP0evP7TvN6oS1sgRgM5DT0+NzAmt69B3jrm4vShnY0CmPfwZz/3th/AK5pAd6pv7dr20hv31V4AF7YBinf/X8q8ArTcDzao6MY/sV9cEajPDmJiBiAiQojeDwoedfbUPbh98Pq6wcAxJ/ezJ5gooucGApCa22B6PHkH1RGRqHnEfomoh8/ATsezzsAQxCgNjVBWdAAfVd+kyW5lg3j4BE46XRBn33cZ+jshpPOfbiu2dEFOxqFFApO+b3t4RFYXd0FL1+k1tcVrRZ6ymHeNBF9+DEkNz8P17J4ghIRARDZBET5XuCGUPr+d6P0A++FFCmBtrANlX/xeQSuuaJow++IaG5SmxZAbWvJezIm13FgtHfAOtk75W1I794De3CowPBWC7W+voCk5cIeGYHZc7Io7Zg+dDivwObqRmaJnyLQT5yAHYsX9mRJhFpXm//Nh+kIv5aF+JbnMfTjn2dmySYiIgZgoryvbUpLUPqh96LsIx+EXFaWKdYSRagLGlH13/+CIZjoYiYIUBc0QG0oIECaFtL7Dxbc63g2q6sbxrETcG077+fKpaXQ2logaFrez7VjMejHj0+9HR0H+vadcI3cR9S4tgX92LGi7Mb0vgOwRwoLjHJlJZSmRgjyhR1g55omEi++jL6vfwvGoSNc+5eIiAGYqIBrW0mCb8N6lL3/nkx9lzD2wlepr0PlX34RgWuvgqCpbDCii+0H1euBtmgh5HD+9b+uaSC1Y1dxNsRxkdy7r7Ahr4IAz5qVkMpK8g/Ao1EYBw9POWzZsRiMI8eAfAK8aUHfu3/qTafrMA4ehhNPFBaAa2ugFLpUUbHCr64j9vSz6P3yV2Hs2VeUmypERPMJa4CJcr2ocF2YXd1I7dgF/2WbAFEYd+GoNjag4rOfBHBx1QQLqgIpHIIUDELweiH4vBCDgexfOlWV8K5fCyeZhJtMwY5G4cTirE+juR+AS0qgrVxe0Oy99sgojIOHirYt6e07M8uNFdCTq7W2QgqFYHXnN5zZTaVhHG+Hk0pD9BU+BNjo7oGTzG8mbNe2YR49DlfXC+q9Ps0aHs7M61BgaJTLyyCXl12wY9AaGsboAw9i5Ge/gnHsBE9KIiIGYKIpcBzo+w6g76v/gopPfxL+qy4fP8xNFM/UBMN1EH/mubkfgiURgqxAUGQImgalqhJqYwPkxnqo9XWQa6ohh8MQNBWComTaRJKgVFVlfTn/pRuhLWoDLAuuZcE1TDi6DmtoKLOGaVc3rI5O6MfbYQ8MwjXNzNrBlsWeDJrdP6glEXgWthUWWI8eK7jXMWuIPHQEVl8/pGD+k0IpVZlhvPqhw4CdxznnurD6B2ANDkL11Re87frR47DznIUarpvpge7rg9bQUPB7mz29ME8WWMcsipBLIpB8vkwvuCDMzIHnOHBSaSR37cLwT36J1EuvwB6NctgzEREDMNHUubaN9J796Pt/X0Wl48B/zZVZQ/DpmmDgK3MvBAsCBI8ncyFXWgKlsR6exYugLV0Mz6I2iMEgBEkGZAmClPkvnws9MeCHGvBnvYhzbTtTt2jbcE0L1tAQ0gcOQj94GPre/TC7emCPjMAeGYWr6zwgafacNrIMdckiKBXlBT0/tXtPUb8n3FQaqX37obW2FPRZfJduROKZLXBT6byea/achHmyt7A6aACwbeh79sEZyX+xNCeRhNnVXXgAdl2YJ07AbO8s+PmJl7di8Ec/ReCyS6HU10EKh6atHtg1TFjDQ9APH0XskScQe+SxTPAtoPabiIgBmIjOc5XlQD96DH1f+RoqRRGBa67KOhz6dE0wBHFOrBMseDQoTQvgaWuFurAV3pXLM+uZVlTMzAaIIgRRHDOJmBQJQ2tpBm67BXAcGJ1dSO8/gPS+A9APHIJ+8BCsrh4On6YLf/6oCnybNhTU6+caBtLbthc3AJsGUlu3IXLn7QU937tiOQRFyTsAW909MDs6gUvWFdQWVjQKs6u7oLawY7HMsN9LNxX21a7rmSHchc4A7bowjx7HwFe/gZGaX8N36QZ4li+F1tYKpb4WSnkFRL9viqHXgDk4CLO9E6ldu5Hcth2pV1+DMzTCk5CIiAGYaHrpx0+g/xvfgqCqc7cmWBQhV2dqcn3r10JbsghaSwvkSHjmhu/lsa1qYwPUxgaEbrwBZl8f9MNHkN53AMntO5B+ZRvskdFZN+xPUFWIkTCckdFMTSbNS65pIf7wY9C35z+RlWsYSO/eBzjFO3Zdy0biqc04ib/H2Bn7cgyDiXhBoyyceAIjv/wN0jt2AUL+82zaiUTmuYUE2HgCo7/5HYwDhwu/aVCkicisnpOI3v9HxP70COTaaij1dVAqK6E01EFpaoRcVQm5tBRSIADR54WoaWduArq2nSkP0XXYiQTsWBxmbx/ME+0wjhyDebIXZkcnzOMn4Jq8+UdExABMNFMcB/reuVcTLMgyBK8H2rIlCN50A/yXrINcVQmpJJIZzjwXiAKU6ioo1VXwb9qA8NAdMDu7EN/yPOJPPgPzRAfcdLqgZWCK2tYeD0K334LwXW/E8M9+ifjjTzMEz9sAbCL+xNOzaINcmN09GP7pL2f8rVPbtiO1bfvMf2bbRnrHbqR37J49u8EwYB5vh3m8PVNeoqkQT4VeQdNOzZsgQRBPlZIIQuYm3umSEMuCa5pwUik4sQScRIJzIRARMQATXcCLmzlUEyxoGpT6WvjWr0PwlhvhXbkMYiBQnHWLHQeOacLV9cwFm2VDLolkfW0nmYIdj2eCuKJAPDV5VqE9zoKiZCbtqayAd8UylL7r7Uht24Hogw8jtXMPrN6+CzJEWvB4EHrDbaj8/L2Qy8uhnqpLZAgmulh/MFy4aR12WgerdImIGICJ5q5ZXhMsaCrU1hYErrwcgVtuhG/FMkAsfAlwVzdgDQ/B7h+ANTgMe3QU9mg0879Dw7ATCTipFCo/92lorc3jnp985VUM/+Z3EH1eSMEApJISyOEQpHAYUiQMqawMUlkp5NKS/CaPEQQImga5shLBW29C4LprEH/pZcQffwrJl7fCPNEO15qZy05BVRG6/ZZM+D1VQ63UVKPyzz8HCALiTzwDN53muUNERETEAEw0N826mmBRhNbShNAdt8F3xSZ4li3N1JnlG3htG9bJXqQOHYZ5+CiME+2w+gdOBeAh2KPRzJqd5wzLK//A+7K+ntnZhfhDj479R0mCFAicCsClkMpKodZUQ2lugtraDE9bC+SysryCu6CpCF59JXxrVyO9ey/iTz6D6EOPwOrtn/bwG7z5BpR/8qOQy8+aEVgA1Po6VNz7icz+f+wp9gQTERERMQATzVGzpCZYkGVIZaUI3nELIm9+A9SmBRC93hzTrgvHMODqOowjx5B8eSuS23bA7OmBPTIKJxqFk0wVf6Ip2z7VkzwKnGg/FYpFiP4ApFAQUjgEtWkBfBvXw7d+HZTa6jP1c5MNnZaCQfgv2wTP8qUI3HAthn/9WySfexH28EjRa+lO1/yWf/KjmSHPQrabIPXwrF6FxJYXGICJiIiIGICJ5q4LWhMsCJAry+G/4jKU3P02aEsXQ/R4cqqtdXUD5kA/jOPtSDz/IpIvvAyzvRNOOp3Ztgsx6YrtZAJ3NAqzswv6/oOIP/k0BK8XWkszfNdcCf+mDVDqaiCXlExayyyFQvBvvATeFcuR2vYahn7yC6S2bc+sm1ms8HtWzW+2dnfTaUQfehSjP/81nGiMJwwRERERAzDRHHcBaoIFVYV33RqU3P1WBG64NuceXyceR2rPPqR27EL8+ReR3rYDbio1a28uuCkbSKWRHBpG8tXXMBwJw7vpEvg2rIdv7Wp4Fi+CoKoTv4goQgz44b/6SmgrliP6uz9i9Hd/hH7oyJQmyspW8ztu+00T0YceRf/XvwWzq5vnCREREREDMNH8MVM1wXJlBUJ33obwW94Iz6K2nOpknWQSiZdeQfyJp5Hctj2zbNBcG47rurCHRxB/+HEkntkCbVEb/Bs3wH/DtfCuWDZpvbNcWoKS97wTnpXLMXL/HxF76FE48XhB4Tdrze854k88jYF//y7DLxEREREDMNE8NM01wYIsw7N6Bco+9iH4LlkPKRg473Bn17Zhj4wi8fyLiP7pYaT37ofd1z9ta+X2/vPXIUXC4/7d7OgqfhZOpZHesRv6voOIPvoEvCuXI3zXm+BbuwqizzfhTQFBU+G7ZB3U1mb41q7CwH98H+aJjpxrnCet+cXr68P2/+u3YBw/wfOCiIiIiAGYaH6azppgqaoCVf/9v8GzfBkESTrPNjiwBweRfHUbRn75G6Re2wknnZ72ut7U1tcm2CB3+trbMGCeaIfV2YXElufhv/pKhO96I7zLlmbCeLYbBIIAubQU4TfeCcHrwcm//j9wEoncwm+ONb8D//7dTPidxs9ORERERAzARBfeNNUE2wNDiD2zBdriRRMGYCcWR/z5FxB76FHEn96SU7Ar5ue+kDce7JFRRP/wJySffxGB669F6M5b4Vu/DoKafbIsOx5H/Klncwu/rPklIiIiYgAmookVuybY1XVEf/N7eBcvQvDG68e9XvrgYYz+6jeIPf4kzO6TF23vozUwiJH77kdqx85MrfSb3wClumpcWB/9/QOIP/lMTuGXNb9EREREDMBEdD7TUBNs9pzE4A9+DKmyAr7VKwEA9sgoYk8+jeGf/xr6vgNca/Z02x84hMGubiRf3oqSd78D/ss2QfT74ToO4s9swcjPfw0nkTx/+GXNLxEREREDMBHlpug1wY6D1Gs7MPSDH0P6/L2wh0cw9KOfIvHMFjjxBGtOz22ueAKJ515EetcehO56I0re8TbYiTgGv/dfMNrPP/kVa36JiIiIGICJKO8UVuSaYNtG/NEnAEGAceAg9MNH2caTtL89MoqRH/4M6R27Ifp9mQm7zlOzzJpfIiIiIgZgIpqCYtYEu5aF2J8eZqPmwbVtpF59bdK/Y80vERER0fwhsgmILpCzaoLjz2yGa1lZztDXa4ID11wBQVHYbjNI8HgQuvM2VHzuU+et+Y09/BhrfomIiIgYgInofM6uCU48s2XCEHy6JpgheIbD7xtuQ+WffwZqY8P4Hnqcqvl94CH0/fM3MkPPWfNLRERExABMROdxVk1wYvPzgJMlRJ1VExy49ioImsp2m87we27N7wQ9v6drfo1jxxl+iYiIiBiAiShXp2uCEy+8NGEIPl0THLj6SvYET2P4Zc0vERER0fzESbCIZotpWCd4ZpOjAEGWISgyIEkQJBmi3wvB44EgyXAdG24yBSeZhGs7gGXBNc3sw74v1EfgOr9EREREDMBENDOKvk7wtCdGQPR4IJWWQq6phmfpYniXL4XStABKdRVEvw8QREAA4AJwHTiJJMy+PhgHDyO5ey+M/Qdh9vfD7h+EaxgXrvFFEb6Nl6Dyi5+BXMF1fomIiIgYgIlo+hV7neDpyosBPzwrl8O/YT0869fCu2oFpEBg0udJkQiUulr41q5B5B0urNFRpHbtQfL5l5B8eSv0Awdn/LOcCbiGAat/IBOAz32M6/wSERERMQAT0fQo5jrBxSTIMrTlSxB+453wXb4JWnMTBEkq8MUEyJEIglddgcCmDUjvP4D4s88h+uAjMI4cAxxnRm88pF59Df1f/zdUfPZT8CxbMqYXmDW/RERERAzARDSNgWxW1QSLIuTqKkTuvguhm2+C2tgAQS3eRFyCqsK7aiW0hW0IXn8thn91H2IPPAw7GpuxocauaSKx5QW46TQqv/Tn8CxZBNe2WfNLRERENE9Inyqt+ls2A10oSm01Im97CwBg5L77YfWcvCg+tyDLUJsa4dr2+Yf7ui6sgUHou/dCra+D0lgPQTxn8nZBgBQOw7t6FcyODpgdXUXvORVUBb61a1D1N3+J8B23Qq4oL7zXd7L3UhTI5WXwb1gPpaEexvETcKLRmesNdhyYPT0wDh2B1tqC5Mtb0f+Nb8M4evz8QVwQIJWWQIpE4CSTF119cORtb4FSW430rj2IP72ZX25EREQ0K7EHmOgC8Kxagcq//AISr7yK6K/vh9HeMXFgusA1waLPi8B116D83o9Da23OOjnUhPndMOCk03BtB4IoQPR6Iag5rGEsCBADAYTuvA1KQz0Gv/1dJJ5/ceZqg20HyW2voftLfwNXN3Ia9qwtXojIPXdD8gcw8LVvZvYpERERETEAE13UJ111FUre+XZ4Vy6HZ+liaM0LMPzDnyG1bft5lwS6EDXBgkdD8JYbUf7Jj0Fd0Dhp+HWSKaQPHIB++Cisji5Yg4NwUmm4jg1BECH6fZDKSqHU10FbugTeRQvPO4xakCT41q6G9OefQ98/fg2Jzc/Dte0ZC8HG0eOTt5Gqwn/pRpR+4D3wXbYJblqHfuQohn/wEziJBA94IiIiIgZgoouToGkI3noTgjdcC0FRICgKgtdfC8/CNgz+6GeI/u6PcOIThKYZrgkWZBmBq65AxWc/BaW2Jnv4dV24pgmz5yRiTz2L+FPPwOzqgRONwkkk4BpmlsCoQPT7IZVEoLY2I3DT9QhcuikzrFrO8pUkCNAWtaHyi59FTyyO1Lbts2N4sSBALi9D5O1vQfiuN0Gpr4MgSRACMkre+Xakt+9E4vmXZnYiLyIiIiJiACaaHelXgGfFMpS8526IoeCYoKk2N6HyM5+AE48j+rsHJnyJmVwnWFu2BBVf/AyU2trMOr7ZAvnxE4g+/Ciif3gQZlcPXF2fNJy6hgnbGIE9PALjeDuSz72IkeZmRN75VgSvuwZyVWX27VnUhsrP34vuv/5fMI+3X/jdqaooedfbUfaxD2WGdZ91g0CprETZRz4I/dARWL19PPaJiIiIZgmRTUA0QydbMIDIe94BrWlB1seNzi6kduya/IXOqglObH4ecNysYft0TXDg2qsgaGpe2yqXlaLsox+E2rQga/h1LQuJ515A79/+PQa+/u8wjhyDm07n3zPrOJlh03v2ovfvvoK+f/wXpHfvzT4UXBThWb0ycwMhHLrg+9O1TKR27YE1Mjq+d1wAfOvXIvzGOwCRX7NEREREDMBEFxnfpRsRvOqKrI/ZsTiGfvxzWB1dOb/e6ZrgxAsvTRiCT9cE+6+8PPvw4qzfCiICN14H/6YNWWd6dnUdsUceR++Xv4bES1uLNsTX1XVEH3wEvf/wT0i88GLWECx6PAjecB1869fmNRnXtLAdJLduw+jvH4Cj6+ObX1MRuuNWeBa18eAnIiIiYgAmunjIZaUoedfbIYXG91y6to3ogw8j8cyW806CNc5ZNcHxZzZnf64gQPB4IIgS3ByDqtbajNAdt0CKhMdvq2Ei+sjj6P/aN6EfOlz0+lbXNJF8dRt6/+GfkXx5K1x7/OurdbWZpZjKyy74fnVicYz+9vdIvrx1fO+3IEBra0H4rW+GGAzwJKDcCQIERYHo80IMBCCFQpAiYUiRCKSSklP/RTL/Fg5BDAUhBvwQvB4IinLhbw4RERHN5utyNgHRNF/LKgqCb7gN3pUrxg+HdV2kduzCyK9+C3t4JP/AeL6aYNeFcfwE+r/5HcSf3ZxTWBVkGb5Nl8C7atX4i2jHQfK17Rj4xrfPv2zTVNkOjMNH0PfP30DdP/491OamsY+LIvzXXAn1vvthDQxe8AmxjGMnMPSzX0FtbYZaWzu2PTUNgRuuReKlVxB/8hlOiEUTE0VIZaWQIxHI5WVQli2GZ9FCKDXVkCMRiKEAREXNBNzMCQ7HMOGmUrDjcZhDwzC7u2EcPgrj0BHYA4OwhkfgDI/kd2ONiIiIAZiIpkJta0HotlsgZalbtUdGEf3dH5Hes6/wIDfBOsFGRxf6v/kdRB94KOfgJZWVwnfZpRD9vqzbOvSDH8M4fmL6G811oe/dj+Gf/hKVf/H5cWsHS+Ew/FdfgdRrO+Cm9Qu7gx0HyWe3IP7U5Sh5x11nBZRT+7+hHuE7b0N6xy5Y/QM8IWgMweOB2tIEz/Kl8F++CZ7ly6DW1kDQtMnP17P+b+/Zp49hwOjqRmrffqS3bkP64GHoe/fDicXZ4ERExADMJiCaxotbTUPgisvgWbo4a3BK7d6D2KNPAEVY2/bsdYLVliYM/sf3EXvksbx6HaWyUnhXr8j6WPLVbUht3TZjbeeaJuJbnkf4TXfAs3L8NvkuWQ9B1S58AEZmaPjIr36DwNVXQG2oH/e4/8rLoS1fCuvZ59gLTKdONhHa8qUI3XwjfBvXQ1vYBsnvL8rwZUFVoTU3QWtugnP9tTA6O5F84RUMfvu7sPr62fZERMQATETTQ22oQ+iOWyF6veMes2NxjPziPliDQ8V5s9M1wf/vnyCGw0jv2g1XN3K/aJYkaE0LoFRUjA94to3oAw9PvEbxNLG6ehB/ejM8y5eNGz6uNTZAqSyHHo3Oin1tHDmGkfv/gIp7Pw7hnG2VwiGE33gnUltfgxNnL9zFHnyl0hKE3/JGhN/8BqgN9RA9nml7O9HjgaetDaLXh8Fvf5ftT0REFz1OgkU0TQRFge/Ky+FZtiTr4/FntmRmcC4i17aRPnAIyVdehZNM5XlhLkFtac66bI9+/AT0w0fgFqGnOq9Mn04jtXc/zCy9VoKmQWlrnTX729V1xB56FKk9e7M+HrjqcnhXr+SJcTF/J2gqfJdvQs0//G9UfOrP4FnYNq3h92xGRyecVIo7gebJySSMK40hIsoVe4CJpolUEplwHVh7eASjv/sDnERyGpKYW1g9sSRBqq3KfvF8/ATsaOyCtKPZcxLmyV4o1edsmyRCrameVfvcbO9E9I8PwdPaAtE3to5aDAQQevMdSL7yKlzD4AlysV2vKwqCt92Mik/9WWZ97RmW3rcfrmlyR9DcJYqQSiNQFjRCrauDqKkY+fX9bBciYgAmmi28G9ZDa2nO+lhiy/PQ9x2YVfWggihA9PuzPuYMj+Q1nLqY7FgMdiyWZXtFCLNseSHXMJB84SWkb7kxs1bx2dsrS/CuWgVtySKkd+7mCXKRCdx8Pcrv/TOoCxZcgAPTRXrHLrgmZ4OmOUYQIFWUw7N6BbyLF0Fb1AalaQHU2lroh48wABMRAzDRrPnN1lSEbr8Fonf88Eazvx/RJ56GNTQ827YaUpZa5UwKtQH3AoV13cj8l+3CyOebdfveOHIM8We3wLN08bheYKW2GsHrroG+dz+XprlYiCJ8V1yK8k98DFpj4wXZBHNwEOaJjqJMtkc0neeKoKkQZAVyQy18l26Ed8VyaE2NkCsrIIXCED3amYniBHC9ayJiACaaNTxrV2dmfj53+LPjIPnqa0hu3Tb7ZgMWAEGYpdMCTDCkezZur2uaiD/6BEK33gzPksU4+xpN9Hjg3bgOykNNMA4e5oky3wkCtKWLUf5nH4JnYWtRZnguhHG8/YKVMBBNRiqJQK6qhNrUCO+lG+FdvhRqYyNEnxeCokCQJDYSETEAE83qa15FQeDKy6FUVo57zI5GkdzyAuzePjbUPKYfOYbky69Aa2sZty6wZ8kSeFetgHH4KJdEmu8X9qEgwne9Eb51a7POBTBT0vv3wx4Z4Q6hWSn05jeg9H3vglJTw7BLRDOCs0ATFZlSVwvvimUQtPEzVJpd3Ug89wIbab5zXcQefSLrrLtSKAjfmtWQQiG203wmCFAXtSF0y43jboLM6KGo6zAOHpnxJcyIcqUtaIRaX8/wS0Qzhj3AREW+6PUsWwJtyeLxF6KmifhLr8DsPsl2ugjoBw4huWMXglddMe4x32UbIVdXsVduPn8VeDSE7rg160iQvAKsZcE1TLiGDns0CjuZBCwbgqpA9PogBf2ZgC3LEGQFgiSOGWptDgzC7DnJ0QZEREQMwETFJ/r98KxZCbm0ZNxjTjyBxKNP8kL0IuEkkog9+jgCl186rmdDra+DZ+VSGIePcDKseUoqL0Pg6isLrvt1TRNGeweS27YjuXUb0tt3wh4aBhwXLtzMBECCADHgg9LcBHVhKzxLFsHT2gK5ugpySQkEVYXZ3Q2zu4c7hIiIiAGYaBpOqIoyeDesz3rRmz50CGlOfHTRcC0L6e27YHZ3Q21oGPugKCJw1ZWIPfgoA/A85bt0A+TyssKOHd1A9IknMfRfP0F6+67zruttj47C7OpBcssLmZnRy0rhWbsK/kvWwbdpA9L7D8Ls7OIOISIiYgAmKjJBgFxTA09rS9aH41tegKvrbKeLiNU/gNS2HeMDMADPyuUQg0E4iSQbah7yrlheWO2v4yD27Gb0f/1bMI+dOG/4HZ+cXdgDg0g89hSSzz4PbeliuLoON5niDiEiIjqFk2ARFSv/Kgq8a1dBzLKWrhOLI731NbimyYa6iDgjo0ht35n1xodcEoG2chkbaV5+GQhQGxsKmtTH6OrGyG9/D/N4e37h99wsrOtIb98Jfd8B7g8iIqKzr8HYBERFuubVVPg3XpL1seTefTBPnpzSBS3NPa5tI33wEPT2DngWto09XlQV/ks3IvHYU2yoeUYqLYFUEimo/lc/eBj6nn1zZ64AUYQYCEAKBSF4vRA1FYIovr7sk+PAtW04ug4nkYQ9Ogo3lb7w34WiCDEYgBQMQvBoEFQVoixntlsUM9t3attd0zyz/c5oFK5hzNCPigAxFMwcT/5Tk52dPqYsG+m9+6ZeQjGT+08UIchS1n8vbNsFCOrkoyxc2wFsu/Dd4PNCCocg+vyZ9lGUzDaf3heum5mszjTh6jqcZAp2NJppJyJiACaa1xe9kQi0c0LOmYvanbszE9jQRcc4dhzG0ePjA7Asw7t0CUSvN+tySTR3iWUlEDWtoOc6sRicWHz2f8ZQEJ6li6E2LYC2ZDHUtmbIlZWQSyIQVfXM8G/XNOGkUrBGRmF2diG9/wCMg4eRPnwExsEjUwom+V/xyFBqa6A2N0Gpq4G2ZBHU5iZIZSWQwxFIfh8gyxAVBa7jwDUMuIYBKxqDNTQMs7sbxoFDMDs6YXR0Qt+z/8yoHkGW4V2/Flpba+77Oh5H4oWXYPX1j/89KS+Db0OmjtuzeiW0ujqIAT8EWYbrunBGR3HkljfBHh6ZG/tPFKEtW4JAllnxPcuWFLY7qypR+uEPTPp3qde2I/Xqa3DN3G8WCIoCZWELtJYWaAtboS1dBKWuDnJJJHMzQtPOjPBwLQtOKgU7Foc1OAirtw/6wcMwjhyF0dEJ4+hxOKNRfjESMQATzT+eRQsh+rIMf04koB85Bod1eBcle3AYxrHjcA0DgnrW2tCCAKm0FMqCBuj7D7Kh5hFBVYEC1zQVI2GI4dCsXbdXLInAd+lGBK6+Ar7Vq6DU12Yt+zi7LUS/H3J5OTxtrQhefSWs0Sj0o0eR2Pw8Yo8/BePg4entEZZEeNauRuDKy+FdtSITgCsrxp6P5263KEKQZcDny9zcbGwA1qyCe+vNcGJxpPbsRfen/xz26bIWRUbg1htRds+7ct4so6sbxuDg2AAsCPCsXI7Iu96GwNVXQqmoGDeSQBAEAMKc2n+CJMG7bjUqv/Dpou1WpbYmp9cb+M/vI7VzD5BDABYUBdqKpQhefy28G9dDa2mGFAplesUneo4sQwoGIQWDUGtrgJUAbrgOdjQGo6sL6X0HkNy6DYktL8A+2csvSCIGYKL5Q1u5LOukN0ZnN4z2dg5/vlg5DtIHDsKORiGXl4+9Lg8HoS5sZQCeh/u80PNda22BtmQxrJ7eWTUMWvT74L1sI0re8VZ4li+DXFZaUI0zRBFySQTy+nXwLl2K4I3XYfTBRxD9/Z9g9w8U73tSECD6vPCsXI7Qm+6Eb/1aKDXVED2eqb2sKEIKhyAFg3Bx1ra6Lpw8h0YLigwp4H/9//doCNx4Hco+/H54Fi8qbBK1+bL/ZpokQWmsR8l77kbgqiug1NUWPIrj9PEnhUPwhkPwLF6EwFVXYLC0BMP/8QN+PxIxABPNE6IIbfHCTI/BuQG4oxNmRyfb6CJm7D8Ee2R0XAAWg0ForS2ICQJvkMwj9tBwwTO+q3W1KLnnnbB6e6HvPXDhQ7AkQqmpRuQ9dyNy15sgRSLn7Q3L62vT54V3+TJoba3wrl6JwW98G3oReoMFWYba0oTwu9+O8C03ZbZZLu7ljn7iBGCdNfzXBVwzzwAsKxB9vsz/rSoI3nYzKr/wGShVlQWvHz0f9t9ME7xe+C7fiIp7P170Gw9ApvdbCgRgDQzyy5GIAZho/pBKIlBrasZN5uHaNqzubtgDQ2ykizkAd3TCGhyC1toy5sJW1DSo9ZnavrlQ90k5BuD+AVhDw5kgkG+QEUUEr7gMgIvB73w/M3v8BVorWlAUeNauQtlHP4jA5Zeed8hw4W8iQPR4ELrpBsglJej7yteQ3rWn4OAvBgPwX3EZyj7yAXhXLi98gqXJAvDBw2P3i+vCTed300OQZYj+TA+w95J1qPjMJ6FUV13U+2+micEAgrffgvJPfDQzfLlYNx7O4cTjSL+2g1+ORAzARPOHWlcL0e8b/6OXTMJo77xgF7DnXlirbc3wrFkFyecfV0EmaCqU+rrsn2/RQpS86x0XZLImMRiAsqAh6+fxrFiK0g/cM+4h13VhDQ0h+cq2WVFz5eo69OMn4Fu/dlxPlFRWBqm0lAF4XiVgB/qx4/BvvKSw3iRBQODyyyCXlmL0d39E7OHHYfWcnNnPIInwXLIGlV/4DLwrVxQ2XDafjyyK8K1djfJPfxz9//Sv0Pfnv3yTGAoi/Pa3oPTd74BaXz9t4de1beh798O1zDEB2Mlz1l9BliD6vJCqKlH6gXug1FRf1Ptvxm/waCoCN12P8j/70LSGXwDQOzpgsweYiAGYaF6dSPUTBOB4AmZ7xyz4pRfgv/5qVNz7cSi1tRBkOctvvQBhgvo474plp2Yxdi/ItgtZarEESYJ37eqsM4i6rgtX15Hasw/9X/836Lv3XfBheeaRY3Ata3wALi+FVF4G80Q7T6R5JPniK4i8+Q2QChxOKYgivEuXQK2vQ/DG6zH6wIOIP/oknGg0r9lsCz3ntCWLUfnFz8K3csW0Bclxb6soCFy2Cc7HP4S+r/wLrO6e3MNvwI/Ie9+FsvffA7kkMq3baQ0OZepdnbO/U1wg3xpgWYYUCCB4yw3wrVtbvJA6B/ffjBMFeFYsQ/mffThzs2Qawy8ApPbsm/7zlogYgIlmklJTfaaWa0wATiRgdnZd+BO9ohzlH/kgvMuWFvRDLyhK0euiinXBNeF2BYMIXHk57IFB9P2/r8IeGb2g26ofOTq2ZvD0sVNWBqWsFFwxcn5JvbwV+qHD8K1dM6UgI4VC8G9YD++KZUi95Y0Y/f0DSL/8Ksyu7mmbWV6uqUbF5z4F7/LlMxaeznxkVUXophuQ3rsfw//105zW3BW8XoTf+TaUf+h9kEKhad9Go7sbdiI55t9c14WTTObZ0DI8q1fAKyuQQsGLdv9dCFIkgtKPfhBac9O0h1/XspB65dW8a8SJiAGYaPYSBMgVFVl7T51kCuZMD13MQm1rKe7EKnNl10gS1OYmyDXVFzwAGx2dcO3xPQBSKAQpEuZ5NM848QRG/vAneJYtndpssqe+Y0SfD/61a+BbsRz6seOIPfYEEs+9hPSevXCLGISlSBgl738P/Js2QpClC3PeqipK3vl2JJ5/MTN643x/K0sIXH81yt5/z4yEXwAwTrTDiZ9TsuAi7wEymWHDazLfy0X6bp5r++9C8V6+Cf5NG2bkN9Hs64N5vB2wHRARAzDRvCBqGuRIePzwNdeFPToKJ5G88Ns4hXVJ5/z+UWSIs6D32hkZhR2LQwqPDbuCpkIqKYGgKHBNkyfUPOGaJpLPbEHyphsQuPzS4oULRYFn0UJozU0I3ng9Ei+8hNjjTyH92s6p97aJInwbL0H4lhshevNcLsh1Yfb1I7ljJ8yOTriGAbm2Br6Vy6E2NOQ9gkSprkLoDbejf8/+85YvnJ6fQKmsmKET2YFx+AicWKw4309TXJZpru+/CxLQZRmhm2887/rH520qy4I1OARraChT1qIokAIByOVlWfenfuw4bM7xQMQATDSvAlYwADE4fviaa9uwTvZxeRs6ddFkw+zrg5plojGptASCpjIAzzNWTy+Gf/ZLKLU10BY0FrW3SVAUeBYvygThG65DfMvzGP7Zr2AePQbXKOw4UmprEL77rXlPxuSk04g99iSGf/JzmF09cOIJuI4N0eeDXFmB4C03ouSdb4NcVpZXSAlcfilGF7XBOHAo+3dvJIzw294M39rVUx7q61oWXMOAk9bhxONwdD0zS7OmQfT5IKiZcgsnmYTV3Tu+jV23qD3x827/uQ6s/gGkdu3Jut1yWWn+9yKSSehHjk36d+Y5a2qrSxbCs7gt75prJ5lC/OWXEf3DgzCPHIOT1uG6DgRRzITgYADq0sXwrl8L/5pVkEpLIagq9N374AyP8AuRiAGYaB4F4EAAYiCQ5dfSgTkwMLtDmWnC7O6ZtlrCmSSFQ5klRGa45i33qyd7wllAxUj41BIlCZ5Q8+qmh4XEU5sxVFaG8k/9GZSK8qIPuRRUFWpDPUre9hb4N23A8C/vy8wa3dsH2HZegcV76Qb4L92Y1znkJBIYvu9+DH33v2D19o+54Wen0rAHh2AcPQ47GkXFvR+HFMyx1lUQoNTVwX/FpTAOHRm/rI4owrt6JcJ33Dal5X0c3YDZ3Y3kttcQf+5F6Dt3wxmJ4sx4ZlGCVFYCbfEieFYugxQOw5hgXfcLOcnRbN9/rmUj8cTTSD734rg/rfrLLyLyjrvy/sz6oSNo/9DHJz8PdWPM6AjP8qWQSkvzPpdHH3oE/V/5GuzRaPZzSxCQ2r4L0d/8HlJpKfw3Xw//hvVIvbbjgqygQEQMwETTF4B9Xgi+8UOpXMeZ9cseWP0D6Pvqv86L9QkDt92Mys9/Ov+hfzMWgF3YQ8PZv4hDQQiqwpNpPoZgw8Dob34PKRRE2Uc+MG4IfNECkKJAa2lG5ec/Dd/GSzD0o58h/dJWuDmGYDEYQOStb8qUS+T62Wwb8edexPAPf5YZ7TJhANEx+uv74btkLUI33Zjz60sBP3xrViFa+qdxa6mLXg/Cb38L5NKSgtvMHh3F6MOPYfQ3v4O+e++EAdYeHoZx+Chif3p4khsY0zTax3Hg6Dpc24YgCJnAf87Iormw/1zDzDo6oeCRL5YNJ5r/UHSlqirv4c9OKo2R+/8w4Xd45oO4cE0TrmnCSSQx8r0fYfQX9515jIgYgInmD02DoKnZA09iltf9OA6c4RGYs2Ct3CkHjWgMF2SZply3z3FgT3CxJvp8ECR+Hc/bEKzrGPnFbyB4PCh933sgBQPT9l6ix4PQdddAqarEwLe/i/ijT+Z08a2dWeosjwA5NIzogw/DnKBHdMxXTTKF6B8eQvCaq3PvsRUEKM1NUBYsGBeA1UVtU5ph247HMfjDn2LkF7+G3Z/HjcrztWUxQ47jwOjqRnL7Duj7DsI+XW8qihBUFWIwCDednrP770KSAoEC5oVwx7R3zs+aBXOAEBEDMFHBBI8nM8HFOR0AclnpBHeTXbgApCxrUrppHU46zbvC8/JAESB6PeMmjREUFY6VvYdJCAYglZbASSTGXVA7qVTBNZ00e9gjIxj+r5/AHhlF6XvfBaW+DsJ0DdcXRXiXL0PlFz8L0e9H7E8Pw9WN8x6zgeuuzrqU2/nCXvrgISSefS7HBrChHz4K/UR7XkFNqa6GWlM9dpkwQUDwpushFzh7umsYGPrZLzH8k18UrzbTceDEE0V5HWtoCMO/+yPiDzwMs7cPzmh0XC+poKmvfy/Mtf13ob+iFSXvUhnR40H4ztvQf/BIJgjzt5uIAZjoYhC5+60o+8gHxi1pIigyBO/4Cw/R60XtX/8V3L/883GPDf3XTzD0gx+zLmgekkJBlH3qzxC46opxIUMqyX7B7l28CA3f+he4Z11UCQCskVH0f/3fEH/iaTbsvAjBoxj52S+hHzqM0o98AP71awueiTaXGzFa0wJUfPZTEBQF0d8/ADetZz9mS0vgW7kCgpx7r5hrmEhuew1OHrPb2tEo0keO5hWg5HAISl3NmFnSpUgYvnVrClub3HEQ2/wcRn9xX9EnJsq2zFm+25Y+eBgD3/oOEs88d951hc++oTHX9t+F5pomXMfJ6waUoCiI3PUmQJIw+ts/wDhyFG6Kq7cTMQATzXOCxwO5JAIh1zU9BQFiwJ/1oWm76J1FxGAASkM9pEgEoiLD0XXYA4OZWUbnc/AXJShVldDaWnI/tlQVcnVVlmQisTZ4nnENE8nnXoTR3oGSd74doTtugVJTMz29wYIAtbYG5Z/4CKyBQSSe3px18h7P6hWQqyrHjW6ZLESktu/M77MnErA6u/P+DEpLM8Rg4Ez9pbZqOeSamoImFDP7+zF6/x9g5rsdM8Ds7cPAt76D2CNPjJ/06zzm2v670OxoDK5hQvDktz63FAqh9N13w3/ZJkQfeAjJl16Bvv9gcXr+iYgBmIjmLqkkAv8Vl8F/xaVQW5ohlUQgKgqcdBrWwBD0Q4eR2PI8ki+8zB5wumhZHV0Y/Pf/RGrHToRuvxWBa66CNMENs6lS6+pQ+oF7YOzdD7Pn5PjHFyyAmGddsqPrMA8dzS9A6TrsofxrQeWKcghnTW6nNTflPhvxmA1wkdq9F+mde2bdEFbXspB46RUknt6SV/idE/uvvAyCZ/ZMTmj09MBJJiHmGYABQJAkeNpaoX3yY0jfehNSr76GxCuvIvnci3BGRvnFRsQATEQXE0GWoa1YirKPfRi+tafWQDynV0tra4XvkrUI3ngdYs9uwdB3vpfpiWE9FV2EnHgC8cefRnr7LkQffRyRd7wVvtUrIXq9ea9ROhnf6lUIvfVNGPzWf44NWKIIpaY671EpUiiIum98FbDsPL4kALmyIu9tlyLh12c3FkWo9XUQffmPonFSKaR37MosETXbjoVkEqN/fDD/m4Jzbf/NAqmt22CdPDmlGcQFVYV3yWJ42loRvPlG6IcOI/b4k4g/+iTsoWGu6U7EAExE854ownfpRlT99/8GtaXpvBfvgixDqalGyVveCLWuDn1f/ir0g4fz7vUgmh8p2IHV14/4I08g9eIr8G5Yh9Btt8C7agWUqsoprXE75hT1ehC67WbEnnwaxt4Dr/97SRhydVXegVtQFHhXr5yZrxefD5DlU9sbgVRVWdANAjsaQ/rQ7Pyu0ds7oO/ck3/bzIX95/cDyuy53DQ7OhF7dgu01pbcS5rO93tWUQ6lrBS+NasQuevNGL3/D4g/sxlmRxd/14hm62Urm4CIpkpbsggVn78XWltLzhdigqrCf+kGlN/7caj1dWxEurjZNuyhYcQfeQI9f/E/0PPX/xtDP/8V9GPH4VpWUd5CbahH8LprxpyjUiQy4eRss+ZCRVXPjCaRSksgFdhz5yQSMHJY8udCMI4dh2sYeT9vru2/WcFxMfq7B5A+crSIH1KE6PPBu2IZqr70RVT9r7+G/+rLsy+RSEQXHHuAiXKU3PI8To5GxwU8taUJoTtugVxWNubfXd3AyG9+l+ndPEd6z955M0RKCgURuetN0BYvzHtSGkGWEbjiMqRv2oGhn/4i6yy1UkkEodtvhbaw9fwX9y3Nhc0KW+xrq1QSo797AKmdu8d+VkmE95J1CF53zfiL364ujP72D7AHh895rRTSe/bz5LvIuIaJ5PMvIrVjJ+JPPQv/NVcifMetUCoqCpr46cw1uscD7+qVkKqrYHVlJjMSfb78ls+5IF8yEiCcCsA+H6QCt9dN63Bm0Xq0ZzMHBuE6dv77dI7tv9nCOtGB4R//HOqXvggpXNwbCIKiIHjZJqjVVRj68c8RfeAhOKNRfrERMQATzT3pPfuQ3rNv3L97N66H77KN4wOwZSH+0suIP/jovG4Xz6oV8F9z5bjloeC6cNJpmCd7YQ0NQ62uglxePu6OuBjwI3j7LYg9+QyMY8fHX+AFAghcfzUCV185N8JLWkf8mc3As1vGXhSpKko9WtYAbPb0YvR3D8Bs7+CJRq8fS4kkks+9iPSuPUg8tRmlH34fApduLHzYpiBAbWmG2rzgTAAWFGVW3Dg6/2YLZ2Y4FhQ5r+V+xt5YMGDP0omK3ESioLkQ5tr+mzXtbVmIPfoE5OpKlL73PZBLIlO6uTT+h0uE1tKMik9/HHJtNYZ/8BPYA4P8UiNiACaaJxephpl96JooQA4E5vVnFzwaPGtWQWtsGB/qBgYw+B/fR+yBh+HoOqRQCCX3vBORu98G6ZwZSz3Ll0Jd3AajvR2w50HNVLa6L9eB5Ms+y6+bSgO2xZOJsh9O0RiSL70C4/gJRN5zN0ruehPk8rKCLtiVinIop5fMcQFBliDIs/tSwLUtwDkVDiUJkAucIEwUICgyXNueffvYNIEC5gKcc/tvlp1Xwz/8GZx4AqXvvwdqXW1xQ7AgQC4rQ9l73w1XNzD8vR/BSXDJJKLZgDXARFP9cU+lMgFm3NklQpzCLJNz4gskGMysd5ulvmvk17/FyM/vgzUwCCcWh9nVjcH//AFijz4+rqdDkCR4li4uuGdnTtwsEEWIJZHsx1A8BtdkAKbzXa07sHpOYug738fgD38CO1rYkErR54NcWfl6r6HjZF0beHYFKOf17wzHKTjACqoKMTJL62Xdwo+LObX/ZttpFYtj5Me/QN8/fR3Jnbum5eaI6PWi7J53wn/NFfweI2IAJpon16XJJJxkMmvgkUrmeQBWVchZPqOTTCKx5YVxPeP28AiSL78KO8tdcLm8fHZNlFL8BJwZZpeFFY0VNAEOXYTfN7EYRu/7HZKv7YBb4AyzUnkpBC2zLqtrWbOyR3TMZ9b1M/WxrmkCBU4KJni8kCsq5tXxMNf23+wM6DZiDz+G3n/4J4z89vewhkeK/h5SOIzIO98OubaaX2JEDMBE8+CCNJGAE88yrEkUoVSWz+8PLwhZe39dw4SrG+Pv+rsuHD2ddQKwiWePdjOvk8t/s7mpJBFyefbjwR4ZZQCmnNmDQ4g++TRcXS/sWPT7zixL46R1OOn0rA/9rpH5znBSaTjJVEGvIwb8UBrr59fvzxzbf7P3pLKR3rYD/f/0dfR86W8QffRx2KOjxbu5IIrwLluKwPXXFHeYNREVhDXARFP+cU9khiO67pgfNkEUoVRm1quc7XfoCzXRpDJSOATPimXQ9x0YE3ZFnw+eJYshhUJZL+qz9Wg5qTTSe/dPOjxarqyA1tIMSLP0vp6qQqnM0vvkOLAHB+HoDMCUO33v/syweW8hJy7O3DCyR0YKmhjKtW3o+w/ATU//cZt85VU48Xhme4dHYI+MFPQ6UigI76KFSDzyOFxrfnwnz7X9V1SiUNzfV9fNLEX29GYkt26DZ/0ahG+/FZ7ly6DUVEHy+6cUXqVQEP5LNyH22FOwe/v4JUbEAEw0h0OgaWbCm2lCUM+a4VgQIAYCkMpKYfX1z8vPbsfi0I8dHxf+IQgoec/dMDu7kHx5K9y0DjEYQPDmGxB64+3je3tdF+kDh7Kud2oPDKL/n78x6bZE3vpmVP3Pv4Lo9c7KtpIryiF4PVkCfgr28Misr+OjWfa9k06j0MJRN5E4M4zYGR7JzE577jk8CSeRRPf//DvoO3bP6Od2hkdg9w9kal/zLJkQNQ2e1SuhNNTDOHZiXhwHc23/FZOgKBBDwcz3Z1Eb1clMPPfUZqQ2vwClrQX+yy+F/8rL4F25HHI4XFgQFgRobS3QWpqQZAAmYgAmmuvM/gE46TQk9ZwlfnxeKDVV8zYAu+k09H0HYA4MQqkYO7zX09aKyi/9OVKvvAp7ZARydRV8my6BWls77nWM7h4YR47O6xCo1NdlHeZtjUZhcY1Iyvd4amw4T9nA+dmDQ2fW3HZ1A1ZfPxzDGL+U2XnDhwzP8qUzHqBc04R5sheOrhd0s8uzbCm869bAbO+cFyNz5tr+KypVgRgOFT8An92+lgVj/0EYBw8j/uTT8G28BKHbboZ/wyXjlvTLhVRWCmmeT45JNBewBpioCKyubjiJ8RNhiX4/5Pr6+fvBXRep17Yj9eq28Uv/iCI8C1tR8s63oewjH0DkLW+EWleX5QLDRuyxJ2B0dM7rY0RtbQayLFdiDw7CHhziSTQPCbIMweMpes2fIMvwX37p2BEnOXJSKVh9A2NKE4yOzryXZxFUFYHLL8s6qmG6Ge2d2eddyIEcCSP81jdDaVowb2ox59r+y/JDUtgFbMAPuWGGfl8dB+bxdkR/+wec/Ov/jaFf/Kqg2mvJ788MpSYiBmCiuc7s7M56ASIG/FAXNMzv8N/bj+Ff3Af9yNHsE1GJYuZCPcvFpmvbSLz8CkZ/9wCcWHz+NpIgwLOwLet6nfbAYGYII80vkgTvpRtR/sVPw3fpBsg11UVZr1XweuC/9UYEr7/m9aWM8jlfBwdhDQyM+bf07r2wBvK7CSNIEnzr1yB4520F9YRNRWrnblj9/QWfi751a1D60Q9ArqqcF4faXNt/434HLLugSQylcBjepYtndN4H17IyS/r9+/eQ3L4z/8NPlgs6b4mIAZho1jG6u2GPjo77ERc9HqiNDRB83vn74V0XyRdexuD3fgizuyf35zkO0nv3YfA/vgd97/5ZP4vzlL5oA/7McXDukFXHgdnbB2uQAXje3fNQFPivvhzlH3gv6r7+j6j633+NyLvfDt8Vl0JpqIMg5zl8WRAg11QhfPdbUfmZT0KtqSnsu+pEO4wT7WP/7cgx6EeO5D0kWC4rQ9n73g3/tVdByGP47VRZHZ1I7ztY8ERWgiQhfOdtKPvER6A0Nc75nuC5tv/G/RSkUlnnf5g0APt88F+2CeqCxoLOz6nckHIScaR278n/59JxCl6+jIiKhzXARMXIgMkUzM5uuGtWjw05py5a5apKmPNk0pWJwmzsT48AAMo++D5oC9sAUTh/aH55Kwa+8z0kX3jl/OFXkiCFQhAn6aUQQkEAs/NCVl3QCCk8fuZrJ61njhvOAD3/ArAsZWYlByCXlCB07dUIXLYJZk8PzBMd0A8fhdHRAaOzC1bPSVjdJzNlFGefC6IIqTQCpbkJniWL4b90A3wbLplwPelJv6d0Hek9+2F1nxx3/iZefAXBa6+B4M0jmAsCtEULUfHZT0GuKEf0/gfyHoo77iVVFWI4BGc0et6lwWKbtyB0600QZF9B7yNqGiJveSPkqkqM/uFPSD6zJWsZy7mfVwyHzkySNJu+f+fa/huz+ckkXMvKv2dUEOBbuwYlH34/hr7zfZgdnTnfSPWsWw3fujVIbH4e+v6D+QdwQYAYyH8os2sY/L4nYgAmmj/Se/cjdMuNwDm9fEp9HZT6uvkdgAE46TSif3wI+v6D8F93NUrveRfkstJxf6cfPYbhX9yHxDObYRxvH187fO6XVHkZyj/+EXjXrz3v30nhyUPyhaItXgQpHB7fZrFoZvIvmn8BWFGgndMzJWoatKYmaE1N8F9+GZxkEnYiATeZgpNIwI7H4abTmTAgKxC9nsxxHQxCioQhBQJ5z3x8NrNvAIkXXsoaTBJPb4bx3nfC09aW3+cURXgWtqHi059E4MrLEX34sczEd6PRTA+tbcN1HcDJzFIsCELm5pgoQZBEQJQgBnxQlyyCb81qeJcvha3r6P/y12C2d0z4vqmXtyJ96DB8a1YV3B6i14vgtVfDu3IF9Le+GYmt25DetQfmsROZMCwKEENByHW10Fqb4VmyGGpjA4Z//DPEHnliVh1vc23/nc0aHsmEwgImNRP9PkTecAe8y5YgtWcfzJO9gG1DUBXIpWWwo6MY+dVvYXV0jXme78rLUfbudyD8xjuR2rMXsWc3I/XCK3ATSbiWmVliLFuYFgQIqgrPmlUIXn5Z3ttrx2KwY5z0kIgBmGi+BOCdu+AYJiTP2ElF1OoaaE0LkHz+pXm/1I1rGEjv3Q/98BEEr7kqawBOvfIqRn7yizGT8Jz3Ak1VoTTWw7N08ZwNQp4liyCGguMvhoZHoR84xJNnHlJbmiCVlp7nuJAhhUNjRwa4LuC6cHFqLIMgFG14rmtZSLz0ElIvbc1+YT4wiNE/PAjt058oqEZRLi1B4Lpr4L9sE6yhYejHjkM/fjwzP0I0BicWh+j3QvB4IAaDkCvKodRUQ6mshFJdBSkQgKBmhqXasTiGSyLnDVDOyChGfvv7zLnlKXwiJ0GSoFRWQCkvg2/TBsA04Vo2XNOAIMmAJGZG9chypn5TkhB/+llAloBZtJbwXNt/Y27MdHfDTiYgRcIF3sjwwLt8GTxLFmcCO3AqqItIvLYd0T89PO7c8y1ZBCkQgBQKQW1egNCN18Hs60dq336k9+yDvnsv7JHRzO+U7WTWHJZlSKUl8G66BOE7b4daX5f/TaiTvZmQTkQMwETzgXHsBKyhIUjnBB1BVaAtXwIpHIQ9NDL/G8J1M3fzbWeCC3E75/A7L75ka6qgtjaPrzdzHBg9PfnVTdPcCcArl0NQ8x/SCUGYloH8Rlc3Rn51/4TnnmsYiD30KILXXQ3f2jWFhUlRhODzQfX5oNbXIXjVFQW9jhQOQa6vA3bvnfCmoWtaSDyzGfHrr0Ho6iun1DOeSVFiZhmhHGph5doaiD7frBoGPdf239n0/YcyM+FnWSIvn3NHkOXMjYpzPtO5pTFyUyOU+rozx4wgSRD8fmjNfmjNTcDtt8I1TVgjI7CjMbiGAUGWM6s6lJYUfMPFtWzoe/bP+9FgRHMBJ8EiKhInlYa+Z1/WxzzLl0Eq4dp/F2UQamyE2tiQ5WLIQnr33nmxFillOeebFhRl1udihaORX/1mwu+n06yekxi573cw+y/8uuXassWTtp/VN4DR++6H3jmzS6hJFeWZ5a1mmbm2/06z+weQPnx0er4LRXHczRFt8SKIk/Q2C4oCpaICntYWeJcugWdhG9TamimNNrBHR5B4dVvBS3gREQMw0azjGgYSL2Wf0MnT0gy1acHUeyloThEUBdrihVBqx8/Y6+g6Ei9vZSPNR7IEdUHj+Fm/LwBH1zHyhwcQ/cOfJp2UyNUNxB55HNHf/wlOMnlhA1Rb6+QByrKQ2Pw8Rn75G1gjIzO3e8vLIHq0WXfYzbn9d2bDXcSf2QwnlSr+d7AonuoFPv0PAjzNTZl6+pncN7aN5LbtSDy1md+PRAzARPMoAFsW0nv2wRoavx6joKrwXXX5BV9vcU5yHLipNJx4/Lz/uWkdmGUrKUnlZfBtvCRrTZ7Z3QPj4GHu33lIWdCYWWP2Ai+v4ySTGH3gQQx+5/uwenPrFXRGoxj6/o8QffhxuOn0hQtQCxohKJMHKDeZwshPf4nR3/5+xnrW5NLSC7ps0Hzaf6elnnsRqV17pn27pJIItLbWKfXkFsLo7MLQD38KJ8oJsIhmA9YAExWR1deP5I6dCF1/3bjHApdtwlA4DCuVZkPlwY7GMPr7B5Dcuu28f+ddvRLBW24saAKYaSEIUOpq4J1gltr4Cy/BSaa4g+chbWFr1lm/Z/q8Gbn/9xj83g9h9+Q36Y7VP4D+f/03QBQQuvWmGQ8LACCXlUKqrIA9Mjp56EskMfid70GQFYTveuO09+7JkTBEdfbezJxr+w9AZuKsX94Hz9IlkCPTd+4oCxoyaz/PILOvH4Pf/S+kt+3glyMRAzDRPAxrw8NIb9+N0DVXj18OqaoK3rWrEXvoUTZUHpxYDLHHnpz07yJvfTMCN1w7awKwoCjwrV8LuXR87bdrWUi9/GrO62TS3KLU1UL0+y7Y+5snT2LoJ7/E6P2/h903UFiI6j6JgW9+G3YshvCdtxe89nDB54+qQlu6OOdREvbwKAa/8z3Y8Tgib38LlIqKads2KRiE4PXM6mNwru0/2DZSz7+E6AMPoeTtb5m2HnalqgpKVdWMtYPR3YOh//oxYg88fFFN/kjEAEx0EXF1A+nde6B3do1bA1TwaAjedD3ijz0J17Lmf1tYVtYf/Itl0icx4EfwxuuzPpY+cBDGkWOTroFMc48gy1Aqymd8AizXtuHEYog//yJG7vsd0q++NrURBq4Ls70Tg9/4NlI7d6Psfe+GZ9HCGRv6K8gytLZWxPLYXquvH0Pf/SHSu/ei7MPvg2f5sszMzkUeii4oCuTaGkDaOXuXtptr+w+APTKKoR/+FFIogOBNN0AsYF3g84dyBWpD/dilx6aJo+tI79mLge/+EKnnX8ysK01EDMBE85W+7wD03XuhNTaMufASJAnelcvhWbkcqdfm/1Co6COPI51l1tnkttcuiuPAu2E9tLaWLEHFQfK5F2H19vFkmYdc28boQ49C8Hrhu2QdlKoqiAH/9EyI5bpwdB3W0BDSu/Zg9A8PIvnci5nJhIpxc8V1YQ+PIP7Aw0i//CrC77gLwRuuhVJbkxlmPB2T+rkuHMOANTBY0GdwYjHEn3wG6Z27EX7bWxC8+Xqo9fWQgoGiBmGlsR6CJM3uG3pzbf+5LswT7ej7yr/AGhxG6I5boVSUT22/CcJZqyAJ0Ds6kNy6LVOmEIkU97x0XTjJJIzObsSeegYjP/915nueM/0TMQATzXfWwCCSW7fBf9XlkEJj7zTL1VUIXHsV0nv2zfvhr8M//tlFewwImorwrTdByNKDYfX1Ivnqa3ASXApjfiZgF/qO3ejdtRdqazN8G9dDW7QQ2qI2KLW1UMqmPoGSk07D7O2Dcew4Ujt3I7l9J9KvvgZ3mmrKXcuC2d2DgW98G6N/fBD+yzbBt2EdtMWLMkvDTLGnzrVt2NEorN4+GCc6oB8+gtSu3Ui9sq2wF7RtWL19GPz3/0T0oUfgv+Iy+DdtgLZkEdTq6sInI3QcWKNRmN3dsLpPZp3xf1YeknNp/7kurN4+9H/1X5Heuw+h22+Bd8VyyGWl+Qd214XrujidgF3DQPzhx5F6dTt8l2+Cf8N6aMuWQK2phlRSUnAYdnUdZm8f0gcPIfXqa4hveR7moaNc4o6IAZjo4pJ4/kWUvPsd4wKw6PHAu3E9lAcXwDhwiA01T2nLlsKzcnnWC6r03v1I793PRprvHAfGoSMwDh2B4PVAaWyAUlsDpbICSkMdlKYFkCsrIZdEIPp9kHy+TP26JGV6rWwbrmnCSadhJxKwR6Mwe07CPHYC5ol2GD0nYR4/AbOrZ+aG0ts2zCPHMHLkGGKPPA61rQVafeazqG0tkKsqIUcikIIBCIqSOf5P9d65lgXXMODoOuxEEvZoFNbgIKzuHlgnOmD2D8Dq64PZ3llw72+2fWAePY6Ro8cRf+xJqAtboS1ohLqwFWprM5SqKkjhEESvd8xQade2M9uaSsOORmEPj8Do6YGx7yDMjg4YXT0wDh4aV+Jhtnfi5N/+34I2NbljJ1zb4v47K1RG//gQUq9uh2fZEnjWroZnxVIoNTWZc8bjGTPfg2uamf2VzJwrVl8/jKPHkNy6DVZX19hm6B9A7Pd/QuKxp6C2NUOpqYHSUAd1YSuU+jrIpSWQwmFIXi+gqhDOPi7SOuxUCvboaCbwHz8B48gxmF3d0A8fgdXTO2dujBAxABNRURknOpB8+VWoTU3jloLwLlsK/6UbYR47DtfgpBjzjejxIHTLjVBqqsdff0ZjSL7wMqy+fjbURcRNpWEcOJS56SUIELweiMEARI8XoqZCkOVMzbAonhqyKWQChOvAtexT4cOEk0zCicUzQ5wv8EW23T+AVP8AUoKQCZDhIESPF4KmZsLT6c9yphFcuI6TCRGmBdc04KZ1OMkk3ERy2nvLrJO9sE72IvX8SxACfkihIESvF4KqZoKeJEFQlcyya6aV+d/TQVg3Mm0/Gj3vyB2rfwDDP/3FnDgm58T+s22YHZ0wOzqReO5FSCVhiD5fZp+dPmckMfM76rqZ8+R0UE+l4cRimaWxJjhXnGQS6Z17kN65B4IiQwwGIfr9mTZQVYinz8mz28C2z7pBksqcj4kk53MgYgAmItg2on98EMFbboRcXjY2IPl8CN12ExLPPgfj2HG21XwiCPCsWoHAlZdBOHeZFNeFceIE4k89w4ulizoNu3CTKdjJFOx58nmcZBJOcm5M8uPaNtzRKJzRLOuxCph1a4lz/50Kq6fWe8/2nVuMm0GuacEeGoY9NMzvKKKLgMgmIJoe6X0HkHz5layPedeshu/yTeN6h2mOf6H6/QhcdzW0ttYsF1gm4s9sgdHeyYYimpVhkE0wFwM8EVG+ePVNNE0cXUf0wUcRuPZqiL6xa4IKkoTIXW9E/MmnMzVDF4jg8cCzZhUEjzbn21tbugiCKF24DRAEqG3NCN58w7g1oIHM5GixRx7niUFERETEAEw0D9k2Ujt2Ib7leYRuumHcUg7awoUIveF2DH33hxdsSKxUEkHpB+6ZFzNSiz5vpobvAr5/+C1vgNpQP/5B18XoQ4/AON7O84KIiIiIAZhofrL6+hF98BH41qyGXFkxNjB5PAi/6U4knnsRepb1cmeCIEmZ5SVoyrzr1iB8261Z16w0OjoR+9PDcHWdDUVERER0AbEGmGg6OQ6SL21F/LkX4FrnLHEhAFrTAkTe/haIkTDbag6Ty0pR+t53QwqHxh8Cuo7RBx6EcfQE69WIiIiIGICJ5jd7YBDRhx6F1T8w7jFBVRG8/hr4L9uUtW60aDk8kQQs66Jsfyetw0mnz/s3Z693mS9BlhG89SZ4164au2TGKfrBw4g/+SycRIInAxEREREDMNH8l3zhZcSe3ZJZX/IcSnU1St5zN9TGhml7f/3gIehHj037WpuzjZvWkd69B2Zn9wTfgCLUhW2o+NIX4b/y8sy6knmlXwGeNSsRfuubIIXH9+LbsRiiDz4Cfd8BngREREREswBrgIlmJIilMfKjn8O/aQO0pgXjQpTvknUIv+MtGPy3/4ATL35PoT0aRf+/fgsAoDY3ZYJegT2ec6PBXTjpNFJbt2Hoxz/PvsalKEJbvBAVn7sXgasuR/Caq9D7919G4rkXxw9Xn+gLtLICkXe9A55ly8a3p+MgtX0nor/747yYZIyIiIiIAZiIcmYcP46Rn/8alV/4NARt7LJDgiSh5K1vRvLlV5F46tlpef/0zj3o/uJfQVvYBtHvm98B2HFgDg/DOHhkwomn1NYWVHzuXgSvvybz/zc1ovJLX0Tfl/85E4JN87xvISgKAjdfj/CtN0GQxg+msYaGMfyTX8AaGOTBT0RERMQATHRxcQ0TsceegP+KSxG4+spxj+sdnXBSqWndBns0iuTWbRf9vlAWNKL8Ux9D4Oorzkq0ArSWZlR87l4AQGLLC5P2BLu6AWtoGEp11bjHYo8+juTLW3ngExEREc0irAEmmkFW90kM//zX0I+fAFxkhurGExj5459w8n/9X6S3vsZGmmaCqiJ0xy0IXnPV+JpfUYRn6WJU/uUX4L/i0vPWBLumidifHkbP3/4d4i+89HpPs+siuXsPhn/1m8zkY0RERETEAEx0MXJtG4ktL2D017+FPToK/egx9P3LN9H3d1+BvmvveXscBVkGJJ6yU94HponYQ48i+dIr2dtbFKG1tqDqf/zlpCHYSSSReHoLTv7l32Dop7+E2dsH82Qvhn/wExgHDnPZIyIiIqJZhkOgiWY6gKXTGLnv9xAUFcnXdiD54suA45z3OYKqInDDtXBSKSQ2Pw9cZLM5F3cHuDCOnUDfV76GSlFE4JqrAPGcemhByL0m2LZh9pxE/z9/A+m9+yGFgog/9WzOE2kREREREQMw0bxmDw1h8Hs/zAybnaSXUFBVBG++ARWf/SScdBr9ooD4M88xBE+RfvwE+r/xLQiqmlmHOUsIzqcm2NV1RB94CIIswdU56zMRERHRbMTxlEQXiJtOTx5+PR6E7rwNFZ/7FNTGRmiLFqLiC59B8KbrIKgqG3EqHAf63gPo++q/IP7M5gmHQ+daEwwAsG2GXyIiIiIGYCLKl+DxIPSG21D555+B2tgAiAIEUYRn0UJU/sUXELjxWobgqd6EsG2k9+xH3//7KhLPbJlyTTARERERMQATUb7hV1URuv0WVH7+XsgVFWPX7BUEqA31qPjcvVCaGtlYU+U4mcnIvvK1TH21k6VX/qyaYP+Vl0FQFLYbEREREQMwERUj/AZvvgHln/wo5PLyCf/OOHAI7jSvG3wxOV0TnHjhpQlD8OmaYPYEExERETEAE9FUw+/ZNb8NDWN7fk9xTROxhx9D/79+C2ZnNxutWKajJpiIiIiIGICJaILwe07N77jwm04j+sBD6Pvnb0A/fJTrzBYZa4KJiIiIGICJaLrD7/lqfk+HM9NE9KFH0f/1b8E4dpzhd7qwJpiIiIiIAZiIpi/85lLzG3/iaQz8+3dhdnHY80xgTTARERERAzARFTP85lnzaxw/wUabKawJJiIiImIAJqIiht8i1vyKoSAEWWLD5rMPNBViwD/h46wJJiIiImIAJqKpBq8i1/xK5WUo/cj7EbztZojBIBs4B3JlBSLvfDvC77gLYug8bcaaYCIiIqL5cw3IJiCa+fBbzJpf0etF+C1vQOm774aTSsOzdAlG7rsfxrETnCgra4OJ8CxfipL3vBPBm6+HE4vDHhxE7MHH4JrmhE87XRMsqCr8l20a32N/Vk0wACS2vJC9x5iIiIiILtylIJuAaAbDb5FrfgVZgv/aK1HyrndACoehVFeh5J53ovbLf4fgG27L9AZneY+LNfjKlRUo+eA9qPn7v0X4jbdDCgah1FSj7CMfhLZ08fnbijXBRERERAzARJRH+C3mOr+CAG3ZUpR+9ENQ6+teP6m9XnhXr0TN//wfqP7/vgTvutUQg4GLNwgLAqSSCPzXXInar/w9Kj93LzxLFr0+TFkQ4Fm0EGWf+AjkqsrzvhRrgomIiIgYgIlosgw2Dev8SiURlH3offCtXD7+9QQBUiiI8JvuRO0//QPKPvUxeFavvOjCmOjzwX/lZSj/wr2o+/LfwX/FpRA9nvHtJYoIXnUlSt75Ngiaev4XZU0wERER0ZzFrgmiGQi/07LOryAAsgw4DiCKE/6NWl+HsvffA/+G9Yg9/hSiDz0G80T7/K4PFkV4VixD6A23IXD1lVAXNEKQzj9Dtus4gJL7VyJrgomIiIgYgIno7Azk8SB0+y0o/+RHz1vzG3/i6bzX+bWHR9D3j/8C4/BRhO96A5TKKkDKHoQFWYZ31Upora0I3XwjEs+9gNE/PgizvROOrmdCdJFV/++/hmfRonH/Hn30cQx9/0fFb2xJgujzwrN4IUJ33AbfpRuhNtZDUM/fo+taFozOLgz/4MeIPvoEXN3I7f3Oqgmu+PQn4b/q8vE97GfVBPe5X0XiuRcZgomIiIgYgInmafh9w22ZYc/l5dnDbzqN6EOPYuDfv5sJv/n0yjoOzPYODHz7P5F44UWUfej98G5YB+k8yyCJfh88y5dCW9SG0JvvROzJpxF/7CkYR4/D6h+AaxhF+/yeRYvgXb9m3L+n9x8oYiMDoscLqaIcnuVLELzjVgQ2boAYCECYrDfXdWENDCL+9GYM//SX0A8eOu8s0Flf4qya4ErHgf+aK7OG4NM1wb1//2WG4IuUUlcDubIya+1/7gccYPUPwOzsKtoIDkHToDbWn38psFyYFtJ79/PYJiIiBmCiizL8nlvzm+1a9qya35yHPWcJcW5aR/KlrdAPHUHkbW9G6M7boLW1Tlx3KggQVBVKVRVK33U3wnfegdTOnUg+9xKSO3fBOHgY9sjo7B4iLQiQqyuhLVkM7+qV8F26Ad4VyyFqWm7NputIvrYDo7/5XabXN5kqfFvOqgmuFEUErrkq63Do0zXBfV/+50wIzjNs09wWvuedKH/fPRDUKdSDuy5G//ggTv6f/wdnZLQo26W2NaP6f/4P+NauntLr2EPDOHrHXbAGBrmziYiIAZjoYgu/01Lzm8MF6NAPf4rktu0I3XoTQnfcBrmsDJikw0kKBhC44nL4N26AfvwE9P0Hkd63H+nXdiK9dz+cZHLWhF4pEoFn5TJ4Vy6HtmIZPEsWQ62tmbgGelxYdWG0tyP6p4cRfehR6IeOFG34N2uC6XxEn29qvb+njiGlqRFKQz30IgVgpbYWSl3N1F9IEiEGAgADMBERMQATXVyU+jqE33g7lPq6otb85sLVDaRe3Q7j0BHEn3gG4bvvQuDKKyAG/JNOAiUoCjwL2+Bpa0Xw+mtgDQ7BOtmL5J69SO/dB33nHtgDQ3BNE65twbXsaakdhiRCkGQIsgxBUyHXVEFbsQzeVSvhXbIYckU5pJISiB4t56WdXMuCPTSM0QcfRvQPD8I4egxOosjBnjXBdL7D2u8rylJkam0N1Lpa6Lv2TPm1BFWF1tqcuVE25YQvQoyEuaOJiIgBmOhiY7a3Y+iX90GurYFnYduY3skp1fzmnIJd2KNRJF56Bak9e+FdvRLhN78R3nWroVRXTb4UkiBA9Puh+v1QG+rhXbs6E3p1HXpnF/T9B2EeOwHj2DFYfQNwUmk4ehqubsA1jMzfWtbEvV2iCMHjgaDIEBQFgqpC0FSIHg9Evx9KdSXUpgVQ2lrhWbIISlVl5u8UJe9lnJy0DrOrG8lXtmLk1/fDOHQETjo9bcO7WRNMEwdgP4QiBGCptBRqazMETYOr61N7rbJSeNatmfTmWE5hWhQhlkS4o4mIiAGY6GLjWjYSTzyDPgio/PPPwtPWmvn3YtT85pX+HDjRGBKbn0fy5Vfh3bAOoZtvgG/jJVAbG3Jbm1YQzoRP+HzwlZTAt3LF60E7noA1MABrYBDO8Ais0VG4sTjsZBJyVWXWl/QsX4Lyj38Yot8PIRSEHA5DLIlAqSiHXFGeWad3qvtA15E+cAiJ515A7LEnoe8/OHM1t6wJpixEX3F6gAVRhGfVCkglEVgne6cWgCNheJcsLs4HFASIQT93NBERMQATXaySz2zBgM+Lys/dC7Wxoeg1v/kGwuSWF5DevhOeFcvhW7cavquvhG/VityC8AQXvFIwACkYgNbclPPTvKtWwrtq5bR8TjuRQPKVbUi+8BJSW7chvf9gUWe2zgdrgunMrpblzI2dIgRgANBaWyCFQlMLwJIIpakRckV58QKw18edTUREDMBEFyvXshB/9EnAdeFdvgyjv/190Wt+8+XEE0i++DJS23dg9E+PwLN0MYI3Xgvv+rWQS8sgaGpRhkPOZBu7ug6ztw+JLS8g/uQz0I8egz0weOF7VFkTTKd3cyQMIccZynOh1tZArq2GfrjwSdwEVYVv0yV5lxVM/IIixAB7gImIiAGY6OIOwbqO+MOPI/74U3B1Y9YsLeSmdZgn2mF2diLx7BZIpaXwbVgH/1VXQFvUBqkkAjlSMrUlW6Zlw104ug57eATWwCBSu3Yjufl5pHbvhTMyCkfXZ9XyTawJptcDsFq01xMUBb6NlyD54stw04XVAYuaBt/qVcXbJlGAFAhwZxMREQMw0UUfgi0LmK2BxnbgJFNwkl0Y7ezC6B8ehFxTBc/ypfCuWAG1pQlqfR2UmmpI4VDuyw0Vuf3skVGYnV0wOjqhHzmK9N59SO/aC3twaHavVwywJpgghoKAUtybSd5T5QuFBmClsQFqQ33xNkgQIHo93NlERMQATERziG3D6uxGvLMb8ceeglRelgnA1VVQ6uugNi+A0lAPuboKanV1UXu1MmnXhZNKwTzZC6urG8aJDhgn2mH2nITZ1Q2jswtOkdY/nWmsCb6IA7DfV7yhxqeoCxohhcNwYvHCAvTG9RC0IgZWQYDg9XJnExERAzARzVGOA7uvH6m+fqSQGXYpBgIQAz6IXh/EgB9yVQXkqirI5WWQy0ohlkQgBQIQvB542tog+sZfEFtDwzA6OjI9z9EY7OFhWMPDsHv7YZ7shT0wCCeZzPwXS8BJJODa9rxoT9YEX5ykQKDwyeYmes1QEJ51q2F2dhWQyEV4VyyHoBTxEkAQIDEAExERAzARzReuacIeHoY9PDzmQlqQpMz/imJmiLQoAIKAxu9/G97V42d7jj/xFHr/4auZocuuAzguXMcBbDvzvwVO6jMn2jCPmuDKv/gCuj7z59CPHOXBN8eJfn9xwyYyN6S8a1Yh9ocH836u0lAHrbW5uBPeCQIEDoEmIiIGYCKa1xwnE1oBjKvEtbL32rqGCScWu6jbbLKaYNe2oR86BCeV5DE2HwKw1wtBKnIAlmV4FrZC8HnhJlN5PdezagXk8rLibg8AycMATEREc+B3mU1ARDTzTtcEJ154CXBev33gWhbiTz2DgW9+B2ZPLxtqPvzQejwQ5CIvLyYIkKuroba15P08raUZYjBY9O0RGICJiIgBmIiIsjqrJjj+zOYzaxrHHnkM/f/8DehHj8/+Ga4ptx9an3da1teWImF4li7J6zlyVSW0xYsgqkWewE4QIHq04k+MN8l70gxjmxPRPMAh0EREF8jZNcEVhgEnlUT/176Z6fll+J0/AdjrAeTi/9xKgUCmlleR4Zq5TZamtjRBa2ueliAjqBrEcAh230ARGk2A6A9ADPgzPeiqCkFVXp9zQJEBQYBrmJlSDMuEkzbgpFJwolE4ieSsn09A0FRIpaUQ/f7MzQNFyZRDuABsG46R+Tz2aBTOaHRGPo+gnprs0OeD4NEyN0pkGYIoZkYxKApg2ZnJ+WwbjmnC1XU48QTs0dHMevcXqj1hsD81AAAx+0lEQVQVGWJJCaRQMHPMKMqpyefcTOlNOp3ZzqFhOKnUrP6OFRQFUkkEgs935tgQRPHUeevCtR24pgknrcOJx+GMRmfn0nmSCCkchlRakjmmJOnMd4+TSEA/cIg/EMQATETzhzU8DKuvb9y/2xdz/W82p2qCe//+y3B0A/bQMNtkXqVfMVMDnMca2vboaOY5k/TSCrIMbWEb5LpamMfbc9oWtaEeSnV1Tjdn7GgMckkk98+qyBADgYIDsKBpUJoaodTWQKmqhLqwFUpjQ2aW+UgEUjAIweuBKMuvr0nuOHBME04iAWtoGObJXphHjkE/cBDpw0dhHD5S8FJRZz5WfR18G9ZD9Plyfk5q716kd+4BssxgL5WWwLNsKTwrlsKzfi3U+jrIZWWQggEIsgzXceAaBuyRURgne6EfPIT0azuQ2rELxpFjRQ/CYkkEatOCTLvX10JtaYJSWwO5vBxSKATJ78/cfDhrJnPXsuAaBqzRUVjDwzA7umDs2Y/0kSMwjh6DeaJzxgKZGAxAW7oYnuXL4F2/BlpzE5TKyszyY4qSWV7PMGANDMJo70Bqxy6ktm5DatuOMfNRCD4vfBvWQ63PfX1sOzqK5MuvwurtK0JYlKDU1UJra4Ha0gzPqhVQ6mogl5ed2gdq5viw7czxEYtnPlNHJ/Tde5A+eBj6gUOw+/oLa0e/H75NG6DUVOf8HKuvD8lXXoV97vKEogilIXPeeC9ZB8+qFdCqqyH4Mt+Frusi9doOnHjn+/kbQQzARDR/DH3/R5Ai4XH/bnZ0snGyYL3vPM2/Pm8mOOXR45o+dhxaQz3kssknqlLq66DkGIDFYADasiUQc1iuyBoahtnXl1cAFmQ5r5B45kKkrha+TZfAu2I5tKWLoNRkLvpFTcvtBoOmQdQ0yKWl8LS1AldeDieRhH7iBFLbdyK+5QUkn38RbqKwSeWUhS2o+Py9eQWDwZ/9Avr+g3BTrwdgwe+D/4rLELjhGvjXr4NSW5t1dnBBFCF4PBCrPVCqq+Bfswr2bTcjtXsvYo88hthjT069l12W4Vm7Cr51a+BZtBBqW0um3cOh128uTLKvBVmG6vNBrakBli2De+MNsAYHoR89huRLryD2+JMw9k9fD5+gqvCsXYXgrTfBv/ESaE0Lst80EgSImga1rhZqXS0CmzZAv/1mxJ98BiO/vh/GwcOZ/FlSgpIP3oPgFZfnfq4ePgyzr3/KAVhpbUbwxuvg37QBWlsL5IqKCdcOFxQF8HgghUJQ62rhW70S7i03wujuQXr3HiSeexHxx5+CPTyS33dVOIjwu9+O0DVX5fyc5Gs7YHR3jw3Aogj/NVci8s63wb9+HaRQcNz3nyAIEMDh9MQATETzTPKVV9kIdNET/H4IAX/Of+/+/+3deZhdd33n+c9Z735rX7Tvu2RJXmV538CsgYSQhhgCxNAGYrqT9NOZeZI8k3ny9PTTHWaSTGd6OmEIDUwYCJA4hCVtY2MM3mTLsiRb+76rpNqr7na2+ePKtmSpqs65qtLm9+t54A+oW3XuOede/T7n9/t9v0Gg2r4Dslta4gXgrk45M6bXB5gTLOm0WluUXrUi1nFU9+6VkUpW1MqwbRm5eL2AzWxW7tJFKn7gvcquXiVnxnRZTU2TtlfazGWVWb5M6cWLVLjvbo2+sEF9X/umarv2xF4u/uY1qXlvVruPHWi6umSYVr06vmXKnT1LLZ/5pAr33CW7rXXMcDPmtSsUlF93szLLlyp3+3r1/tVfq7J9Z6LZYMOyZLa2KLvuJhXfdZ9Sy5bK6WivPxCZhCXxhmXK6eyQ09mh7HWrVLj/Xg3+0z9r6MePKzh1evJmrg1DVlurWj7xMTW970E506cl67NtmkrNni3nYx9VesUy9f7N11R69gWZ6VSsz9w598Yby8EbuklN2dO6VXjwfjW978F6cbpcrrFT4jhKzZmt1KyZyq1fp8L996j3m99SZcMrimq1mN89oSIv2RJ2M5OWmc6c85Ct6cMfVMsnPqbU7FmxHqYABGAAAK4hZi4rM5dgVtT3Vdu5S+n5c6U5s2MMQDNKr1qu4cefVPj2ZYhvCw12e7vS8+fFOozy5q3KrF2TOACb2YkH8IZjq/WLn1Xzh39FdnNTPQxOUXElw7bldHWp6X3vUXr5MvV+9esaefzJRMuiI99LHN7sjnbJMmWkU8rceL06Hv28MitXyHCdi3gzhqymJhXuuUtOd5dO/ul/UnnT5nh7WQ1D7sJ56vqTP1R66ZIzrbmsqbvvsxllli9Vau4cZdfdrN7/9lVVNm+96BBsOI5SSxap/dFHlFu/TuZFVB43Uynlbrhe9h916uT/9mcKTp2W3dqSLABXqoqq1eTvI51S9uYb1PrZzyi7elX9fUzGZ8A0Zbe0KH/XnUotWay+b/ydhh77oYL+/gv0Knz7mwkTPxwy0mkZ6fpKDbNYUMsnP67WT3y8vnKEgmm4kv9t5hQAADA16gPE+IP0KAgU9A/KO3Ey9qxjeskSWU1NE4bO9OqVsWaYompV1S2vJ9/DaVv1gl8TBsqgvu+1taU+c3cJBsr1vskL1fnv/o2aP/brMvP5+NekWlMUBon+ntPaKjObVf7+e9T1h/9e2bWrLy78nv1eLEuZ5cvU8e++pNTihTHfRCTDceXOmSMrn5/S8Ht26DZzWRXvvVtdf/jvlV5z3UWH38y6m9T1x3+g/F13XFT4PTswpubMVse//aJSK5fLnuBzdKGHI0k/J2/Mkk770/9F+XU3T9oM/Ln3iCl3xnR1/M7n1fb5z8pub5/4RUGYuIiZkUrV/+M4Krz33Wr79CfrDxEIvyAAAwDwDv1HNp1ONFCPgkBR4Kt29PgFCyhdiDt7lqwJllkbjqNMzABSO9kjv7cvcZVcw7LivdcoUmnr64lnmyaD096u1t96SPl333vB/bcXPNyaJwXJZi7NQkGZ9beo/ZGHlV4wf/IDgWkqc90qNf/mb8jqiLds1x8YUGX3nsvyOcisXK72L3xWzvy5jQfVFcvU8egjyqxZPekBPr1ooVoe+g0Zcfadn31veH6iJdBmsaCmj3xI7V/8XKI95Y2yCnk1f+RDan7oX0343qIgSDybbabc+v7qRfPV+smP1/f7AgRgAADeyQE41UAADlXdszf2wNpuaZa7cL40TigwUimlFy+K9fuqe/cpGBpK/F4Ny479Xsu/fF7h6OhluSZOZ4faHv60Usvj9VCOvFripbtmPqfORx9RetHCKZsNM1MpFR+4T7nbbh332r8hON2rykuvKAqCS37ODctS7pab6iGprTXx6+3ODrV/6fPKXLcqUUX12Mdn28osWpT4dVG1GnvW1Mxl1fSrH1T7w5+W09l5yWZJrXxeLb/xERU/9L7x9+SGYfLZ7FSq/r4+8qtKzZ3DFz4IwAAAvNO9sUQw9oDa8xX5nqqvbVNUiTkbY5pK33j9uEts3eVLZLfHmCkMQ1W2vFZvx5W0T6plxV7u7R07ruqevZftuqTmzlHrbz0Ub0l4uZI4NBqWVW+nM8VFgOy2VjV9+IOxZhOjSlWVnbvkn+69PAPOdFrFB9+l/D13xp59l+rVs1s/92nlbr5xapduNxBII9+PtZLBsCzl7rxdbZ/77fr+8Eu8RNhubVHrQx9TauWysd9LECgqVxJ/v2VvW6fCXbclK0QGEIABALhG/5FNuTIn6Od77iDUV+QH8o+fkHc6fqubzNIlMuyxB6CZG9bGaivkDwyotnd/vbhPLeF+QMuSmY4X9qNqVaOXsVK8YdvK3nKTsnfEaHkTRskfBlyyN2Iou3a1UsuXSNbEQ7ra/oOqHTh42Q7XbmtV8UPvl93dFfv95e+5U8UHH4jXFusSi3xfirFSw120QG1f+KycyxB+3ziPqQXz1fLRX5M5Vmuz6M3/SvQ5Kt57t5zp0/myx1WFKtAAAEzVuNN1L9ybdMwEGkh+PQTXDh2qL6GNwZ0xTVZ7q8Lh4QsH4IULpBitd7wTJ+WdOHFmQJx0D7AZO6RENU/ljZsUlkpj9g6OgkDBwID8gUEFIyNvBnLTTclqKsjp6Gi4bYxUnxXL37FepedfVDg4dNXeY2Ymo9ydt2v0F88rKpfHv75Hjqi6a7eyN6wdsxVTVKnK6+uTPzioqFxW5HkyHEdmOi27re2t4mUNyq5apdSK5fKOnZhwn7sza4aa3v8eOQnbE10yMfYAG66j5o/+Wn0veNKAXaupuv+Ayq9vk3+yR0YqJXfeHGWvWyW7tTVRmDYcR7n165R54imN/vyXk3f/NdD7GyAAAwBwjTJdV2YqwQyw79eXIvq+Kjv3qHjfvfH+Ti6n1OqV8vafP7tnT++WM2vWxHsnI8k7cEjewcOSIoVJq0BbVvzl3lEk/9hxVfcfUGbFckVhqKhSld/Xp8ru3Sq/ulXVza8pGBhQWKvV9yaGYX2CyjJluq6s5mZl1t+s4v33KrVgfuLeuoZtK7PmOqUWL1J5nNnoqFKJXZAsljCsL6mOIsk068t6L3JWMHv9GpnplIIJAnBUqaq8faeKwyOym5vq91u1qtrhIyptfV3lV16Vd+CQwtGSolpNUeDXz/uZ4zRSaTkzpyt//z0q3ntXvfp4wmM3sxnl77tbpWd+qbBUHuf6WPVZ+huvv6il5FEQvLWiIYpkuM6blYsvmu9L4y2BNgzl7rpd+XvvSvb3oki1I0fV981vafQXzyno61dYLtdXWRTycufOUevnPqP8ultk2PGXhTvTpyl3zx0qb956ftu0M+cJIAADAIDGGEbigXZ9CbSvyPNU3fKaoiCIte/RcBxlV63SyGM/Ou//Sy1fKjtG4aGwUlF1124F/QP11iwJCz8Z5pkZYNOM9Vr/dK9GN7wsu7VF5de3a/jJp+uzsQNDirwz7WXGm4U2DJU3b9Hwjx9X5+89qvzddybeI+rOmqXUgnkqb9w05jFHfqAovPgl0JHnyTtxUrV9B1Q9dEhhuSKrWFBqwTylFi6U3dzUcBB2urrkLJyn4KVNE/5sedOrqh08KO9ESqMbXtbo079QdfvOehj1aor88cN+deculV7YoNILG9T5u482VM04t3a1zHx+3ABsd3ep8P4HZRWLDT9o8E6f1uiLL2n4iadU2bRFiiI5C+epcN89Ktxzl9wZ06d0SbLV3qbie98tJ+6S7zNqR47qxH/8skpP/+KcwlSRpHBkVP7JHvknT0n/8+8rf8dtse97w7KUv229Br/zD6q+PQA30AcYIAADAICzQqkts1hINHsVefUl0ApD+cdPyD/dK6erc+K/ZdtKL5gvI+WeV5U2NW9erPYkwfCQKnv2ngmdUaL2Lm8EUjOXlZlOKyyVJs4nw8Ma+scfaPS5F1TesFFRqZwwUUaKqjXVdu3R6b/+qtIrV8Q6V2czM2m5y5fKLOTHWQZ98eE3rFQ09NOnNPid76v86pZzZtrM1mYV3/NutT38KbkzZzR2r7mO0iuXqxIjAHt7D6j3b76m6v4D8vbsayhYhsMjGnn8Sblz56j94U8lW+YvyW5rk7NssfyeU2NcGFPugvnKrr6usYAaRaruP6hT//WvNfLk04pG37of/ZM9qry4UaUNL6vzS19QKuY2gzH+jKKx7g/DUPbGtcrefFOiBzNhtaq+r//deeH33B+KVNt/QP3f+JbcuXMSVWBOzZmt1PIlqu3eM+HDjsnyRoulKAxlmKYM1x37vAEEYAAArtIA7LqympuSDRS9msJafdAbjI6qdvRovFBnGLK7O+XMnaPazt1v/c+ZtNzZM2O1Jwp6+1R5bfubA/uwUkn+pjNpGZmUFCMAK5Kq23dJ23dd9Lmu7d6nyp69iQNw/QHBXFmFwtgB+MwDgYsx9NOndPov/q8zy8vflmX6BjT43X+UYdvq/P0v1Wffk95rlhW/EFEUaeSJpy4+1I+WVN68VV5vr9xp05K92LGVXrJY5Z8/O+ZnJ3vbOlkN7vEOhobU+5W/1ciPH7/gg5zI9zX69C/U19mhjt95RHZLS2PBzqtJYxSLM4sFZW6+MV719bOUt2zVyM+embglURSpvOU1lTdukjtrZvyQbRjK3HSDRn78hCK//LbnPJMXSiPPq+9f3vqaqtt3KRwaOhOALRmZ9GVpxwUQgAEAmEqOIyPh8s2o5tUH1ZKCwSFVd+5W7vq1sV5rNTUptWTROQHYmTlD7vy5E85CR0Gg6v4D8o+/VQArqibfD2hmMjIyWUn9k/9AwbIkx5ZhWpJlyjDM+uygIRmZjPzextr72F2dMsYJnWGpXC9O1qDK7j3q//q35B06Ms51r2n4pz9T9o71Kt51R/I/Yppy2tun4CmOUd9bbVv1826aMkzjzKysIQWBwuERaVrya+nOGDuwm+mUsjfd0GDyijT4+JMafuJn465iiCpVjTzxlHLrblHx/nsam2n2gzFnUe3ODuXW3Zyob3FYqWj48afe+hxO9PODQypvfV2FB+5NtFQ8s3RJvW3aWXvGI99XOFq6+HsmDFU7dFi93/qOSr94TkFfn4LB4XP30RvGuG3bAAIwAABXIcN1ZBXyCQNw7c1qx+HQkKrbdyisVmNVVzYLeaXmztGwYby5d9aZPk3O9InTSeR5Km957a19sFGksJx8BthIp2VmJqldjWXJairKam6SVSjImTtb7tLFcrq7Zbe3yW4qyszlZLj1VlNmrrFqtHZz0/iFyoKg3gqpkSzm+xr6H0+ounP3hFW1gxMnVfr5L5Vfd3Pilj+GaSa+18b8XSlXVkuLrOYm2S0tchbNlzt/npxp3bJbWmTlczKzWRmOIyOTbqgKsGGa486MOvPmKDVrVkPHXztxUoPf+f6YFdHPya8nelTevEX529ZNbjVj01Rq/rxES5MlqXb0mCo7dk48+3v2A5a9+xQMDSUKwO70abKamxWcveohiqQgvKi3Hfm+Sq9u0akv/4UqW7eN3UrtzPYFgAAMAMC1FIBtR2a+gQBcPTP4DSN5J3rk9/bJjRFiTdeVO3tWfT/r0HB9WXRXp+wYLWSiSkWlDWdXQm5wBjiVil8Jeqzfkc/JXbRA6aWLlV5znVJLFis1e5asfH5KChaZ2WziCtJx+b19qr6+Y8L2RFJ9Fr525Kj83l65SfuqGkZDS6ffOgmG7GndSi9ZrNSSRUqvXqX0ksVyujonp1ryBY53vOXNqdWrZKTchn716PMvyDt8JF4bryhS7fARBaOjkxqAjZSrzK03J76vvMNH6see5B47cjTxzK3hpuQsXaTawUOTd02jSJWdu3X6z/+Lyq9svnJ7ZwMEYAAApigAO3biWcn6DPBbwdPv6ZHf0xMrAMsw5MycIWf6NFWHhmVmM3Lnzom1/7d2/IT8swfeYTRuhd6xB9ZOw4HJyGWVvfUW5W9bp8z1a5SaO+eS9Bg1Heei2uyMG076++X3x18OHgwO1WflkgZgKXEF7DcHgjOmKX/3HcrfcZvSy5fK7uiYsgcCZ9+rhjv2g5LUnNkyrOTHEJbLqry69dyZzYnO+cDgpM9GGrat9OJFiQOkf+Kkgp7TiV4W9PUnb19kmYkrU0947kslDT/xpMqbtxJ+QQAGAOAdGYAtK/GsXFSpnjOY9Q4dUW3fgdjVcO3uLtndXaru2CXzzJ7gOK8rbdqs8JwZ36je/zZxAHbHDTYXfE3KVeq6lWr9zX+l7A1rZbe1Ts2s45gJ2JSmqBNOODKqcGQ0QYArKSyXG73jErxnQ1Zbmwrvvk/F971H6UUL6ktop7Al0HlHO85DB7e7S4aV/KGEf/q0vKPHEvVtDkul5BXPJ7ynU+PucR7roUDh3ruVXpQwOJtSauH8xOc+zsqQJLyjxzX8xFMsbQYBGACAd2wAtu0GAnDlnAAcjoyqunefwnI51myo3doip7OjvsS0kJcbYw9i5PsqPf/iOfv1ojBqqCCOkUqNv5/2bJYlZ3q3ih/6gFp+/cOyOzsbnsW8Up29pzvWz1drUx4gjJSr9MrlanvkYeVuuam+QuASBt8Jj8+xZTU3NzQr753ulXc6WTG0KAwn/T3YM6cn3v4g1Qtn2Z0dl+Lpg8xJ2jMu1Zfvl3fuVK2RtloAARgAgGskAFuWzEw6/guiSGGlcm5giiJVdu9VMDgUKwCbmYzcBfNk5nOyW1vlxljmWDt6TN6+g+cWwIkiRcMjid+z6TjxesKaplKrlqv9kYeVv3194qJPV1EETvjjkRSFU3Y0ZiGv3P13q/1zv630gvlXVPB9g9XZITPfWPujcGBQ4cDAZX8PzozpMuwr+GGOUa+0PWn8ehV5haGAq4HJKQAAYArYtqwEM8BRGCqqnV/9tbp9h/y++PtInbmzZTU3yVk0P1YYrezarWBw8PwwnmDp7pvj6ph7gN1FC9TxpS+ocPed13D4vcIyTyajwnvfpY4vPnLFht/6caYb3oMclcqKSuXL/h6sluYp21c+OSfZaGiP9djfXYH80718yEAABgDgHR04bFtGOsEMcBi+2QP4bEHPadUOHlQUc1+jO2umrOZmpZYtmXjg6vuqbHxVwdsDdhTVl+8GyfrfGo4jwxl/YG1P61L77zyi/Lqbr7klz1fuvWgpe8etav/855SaPeuKDb9SvZWWGrwvwnK5ofZdkz64zqQ1ZRvLJzEET14CbuyBGXC5sAQaAIApGFya+VyimayxZoAVhiq/tk2F++6JFRidrm5ZTU1KLZi4MI53skfVvfsu3Hc0DBV5XqKQakywBNos5NXyiY+pcOdtF1XoKqp5CkZG6gWMKhVF1ZoM15E7d86lLaB1lXDmzFHHF/91vZp4o8EnihSWywpGRhWVy2eW63uyO9rkdHZO3oznRQQzw7Jk2Jai6mX++LvulfyMof6AazILf0VK1LsYIAADAHCtsUxZ7QmrrAaBwjEKIJVe2livyhxjubBVLMhdOF+pmTMm/NnagYOqHTg4diD3PCnBLLbhOGOHfsNQ9uYbVXzvg421N4oi+QMDqmzfqcrr21Xdu0/eseMKensV9PbLnTtHM/7yP8vp6uL+O+eGsNT8sV9XetHChsLlG/2Jy69uUXXn7nqv4pMn5fecUjg8opbf+k21P/ypi+tDfDbPa3gvqZFOy0inpAYKuE0q31ekK3sOOOnqjlgpGCAAAwDwzmQYpszmpmTDxzAcs2Kwf/CwvJM9spri/c7Cg/dP+LOR76u6Z6/8Yycu/ANhlHhW583WT6Z5XoixWpqVv/cuOdO6GxqslzZv0cDf/4PKr7wq7/BR6W0zWOGlqJ57FUotX6L8+lsamhkPhoY0/NOfaegnj6v86haFA4MXeIoyuTN/4WjjbYmMXFZGLif19l/Wcx5Wa1d2L9wouiKWigMEYAAArhWmKaslWQBWECr0LhyAo2pV5W3blV4cr0do9rpVEy6/DoaGVdm+c8zQHUWhIi95EDGLeRmuc047J0lypk9T/s7bx+3/euE0EWrkl8/p1J/9hWp79096z9Zr/T7M336bnBirAd7O7+1T799+Q4Pff6y+R/wSBbrgdK+iBsOZ3d4mu61N/qEj8UPzFPSBDkZGrugAHIWhgiugWjZAAAYA4JoJHoasQjHhoDQYswdsVPNU2rBRLR98f6y9lnFm+/zTp1XevGWcUXyQqIftm2+9qUmG654TgA3HUfr61XK6OhP/vsqu3Tr153+l6q49V/as2pU4yJvWpcyaVcn7UXueBn/4Y/V//e8UVS/thtqoXFHQ319fQZDwYYnd1ia7vTXZ/ZrPybAnd9+4f/RYQ0uM/d4+eYcPS8HU3udhtarK9h18QEAABgAAk8MwTFmFQrKBvx8orFTG+P981bbvlD8wILu19aKPLwpD1fYfqPf/HetnGiyUY2az580+G66jzA1rE+9BjTxPQ//yhGp79xF+G+DOniVn7uzkQax/QAPfe+ySh9831E6cVBSGiVcL2K0tSs2fp9HUs2M+THo7q1iU4U5yAD58tP7388leN7rhJZ34k/+gsG+AmxeYQrRBAgBg8hOwzHwu2WvCYNzAEQwNq7r/wKQcXuR5Km/bMX6xoSBQ2MAMsJHNSPbbKkdbltwZ05MHicFBVffsO2859YVPuaEru/TupWc1N8tubk4eQA8fkX/0WOx7fbJVDx5S5CefQTUcR5lbb5HV3h77NU5n5+QV8Hrjozw0Ir83eV9cZ/o0OdOnceMCBGAAAK62f12TB+AoCMddchwMDKjy+vZJmQmNyhWVn3txglF82FBrEzN3gRlgw5Td0pI8SIyWFJZiVvS1LJkxqmS/o27DXLahitt+f78UxrvPzHRq0vs5VzZtbnj2Obd2tbI3ro3VgsxsaVJ6xTJZjVQlH/ez7Ku6b3/i16XmzVV6+TL6YwMEYAAArjKGkXxQHQTjVmYNh0dUfX27gtHRiz686qFDqu0/OP4gPgwb2gNspTMyLPu889HILJthWfHCgGnKntYlM5/n3jv7/DlOQ9WfTceJVRjKzOdkd3dNeu9lb98B1Y4caei1Zjar1k9/Qs6CuROcG1u529Yre/MNk9fD+I3PTs1T6aWNids5WYWCmn7tV+QuWcRqBoAADADA1ZR/DVm5hDPAvq9wvP6lUaTa0WPyTpy86OMrbd6icKIZtiCMvY/ynPeeTklvD62GGprVspqKspqbJgwDZjql/P33MHP29mthmsmrbktyYoba1NIlSq9YNulhLaxUNPLChoZfn166RJ2//2+UWr5Uhn2Be8KylLnlJrV+6iG506dP+nmPPE+VTVvk9fUn/eJQbu0atX7mE3LmzOIGBgjAAABcNQk4+dJTP5Aq47d/8Q4flXf4yEUdWuT7Km/YqMgbP9xGYWN7gM10+vzQEUUN/S4rl1N6zXUyi+MXFEtfv0b5W9dx313gWjdSjdiZ1q3UquXjX+emovIP3Ct37pzJP+6ap9KzzysYHmns42dZyt92q7r+6A/U/KmHlFq9UmaxILOpqNTqlWr51EPq+L0vKXvdyik79/6p0ypv2drQd0fx3Q+o43d/R+m1153/MKmRwX4+J6utlQ8EcAZVoAEAmOz8m8nIcN3EYWWi/a7+yR5Vd+9V/rb1DVeurR07Lu/AISkYf3lmFIxdlXrCAPz2QXsYKRgalNPdlfCXmSq++36VX35FIz99WtHZx2MYMlKu0muuU/ujn5fT2dH49dK1udw0LFcUlsuJK5KbuZxaP/FxeQcOyTt6XDo7RJumrGJRTQ99VM2/+sHG912Pd8rDULU9+zX68kYV776zoRlmw3WVu/F6pZcukd/bq3B4RDIkM5+X3d5WX6ExhcuMg9O9Gv3ZM8rddKOsQj7xZ6j4wH1KL1ms0Rdf0vBPHld1xy5FNa/+QCMMFIWRpEiGcaaPsWnKMC3JMmXYtqzuTqVXr1Jm2VKlFszXyLMvqO+//T98OQMEYAAAJp/V1pJ45ibyvPogfdxRdaDqrj0Khodkt7U1dGyV17bJ7+2LMYJvbA/whZZAR0Gg6qEjSi9enPj3OW1t6vqD35M9Y7pKzzxbL45kmrJaWpS75w41PfguOTOmX9Q+TsN162HoGmu15Pf3y+/rTxyADctSfv06GX/6xxr49vdU3btf8n0ZjiNn9kwVP/QBFW5f31CBrbODtOE4YxZa83t6NPzPP1F21QrZCao6n/tGDFmFfOIAOhki39fohpdV2vSqCrevT3x/Go6j1IL5cufMVtP73qPa0aOq7jug2uHD8k+dVjgwKPmBjHxWZiYjq7VVdlen7I52ud3dcro6ZKRS9aXshqFwdFR9ppl4XzJAAAYAADECcGvivZeR542/B/iNAPv6NgX9Aw0F4KhWU2XTZoX9AxP/bBA0VInXTJ1fFTjy6n+36f57GwoxTne3un73UfkPfUx+X59k23K7umQ1FSflehnZzDUZgL1DR+QdPqLUnOS9gA3XVX79rcpev1be8RMKSiVZxaLcznqwuvgPiSUjkx670ngQavTFDRp+5lk1f+C9k15o65Kc/30HNPSDHymzfJns9sYeWBm2LaupqExTUZnlyxo+Fqe7W1Zbq4JTp/mCxjsee4ABAJjsf1ybipKZYHllFCmqebECmHfwsLxjxxuayfFOnz7TY9Wf+IcbLYKVSsmwzLcFYF+VTVsUDAw2HlItS053lzLLlymzeNGkhd9rmX/suKrbdzQ0k//mvZxOKzVvrrIrlis1a+bkhN+Ygp7TGvqHf5J35OhVew1GnnlWI88+F+8zN5XfScWC3AkqYwMEYAAA0BCrWJSMhDPAtXizrZHnqbx9R0MD6tqBQ6odPBTv7wS+onI5+cDCdc9vgxRFqh06rJEXN1yRs6xGPndNtp2JPE/Dv3x+UiqHT/o5t636zPsEyq9sVu+3v9twQazLLewfUN9Xvqbqrt2X9d43C3k5s2cLAAEYAIDJD8CFgowEM8BRFClMEDbLG19NPKsXeZ6q23bIPxSzirQfKColD8AyTZktTeftefRPndLQP/1IteMnrrzBUCYt4xrtu1rZsFEjzzw79lLjy/Yhser7xWPct0PffUz9f/+9WFsEkgpGRqf83NT27Nep//2/qLpv/2Xbg2tls3JnTKe/MEAABgBgCv5xzeeTDTQTtgmqvrZNfsIeo8HQsMq7dseeOY5TlXrM99/cfP4S8DBSacPLGvrxvyhsJFjHOeZaraHlvmYhn2zJ+lUk8n31f/u7quzaM2V/IyyVEs9uGrYtMxuvV3Y4PKy+r/x39X33+woGBiYv/A6PaPAHP5Q3xQ9loiDQ6AsvqufLf6ny69saak11sQzHkTN9msx8TgABGAAATHIAziWr+hpFifbbhqWyKnv3Jhvs9/WrunVbghcEisqVhmaszEKu3p7l7cc9OKSBb39foy+9POkhIBga0uDTP1f1SPI+yWZTU+Il61cTb+9+9X3tm/KmoABSZc9eDf3il4lnUQ3HqT94iHt9e/vU/5X/rtNf/bq8kz0XvZw4GBnVwPcf08C3/l7B4FADqTZSFMTfhhDVPI0+86x6/uwvNPriS5c+BBuGnOnTZE/r5gsa73hUgcYVw8oXZLU0cyKAq/JfE4tzcPb3WSaTfAa4Er/icuR5Kr+yWcV77o7382Go6oED8g4cTDbGDwJFQZC4orVZKIw5o+odPKRTX/7Lep/Wm26QYV/kUCSKFAwNqfcbf6fhx59Sx7/9otLz5ye7fVuaL6qN0pUu8n2NPP6kzFxWbQ9/qr4U9iLfbxQEqmzbrlP/9SuKfE+F9etlJeh9bbiOrGKy9kx+zykNfPPbqm7fqdbf/qSyq1fLSKfi359RpMgP5J04ob7/9//T0GM/bDiIRkFYL1yX5DW1mkovviz/ZI+aPv5RNb/vPbJams/vmz1VX9OdHbI72lWbwtUAAAEYSGDGn/+ny14lEUBjzMvQZ/OKDsD5XLI9pVGUaLlx5Hkqb9gor6dHZjo94c+H1ZpGX3k18Xds5Pv1AJywBc1ES8CrO3fr5J/8B7U+8rAKd94mu6WloUAWVquq7T+gvm99R8P//BOF5bK8w0fqx5wgVNgdHTIsU9E1fE+G5bIGv/eYvJ4etT/8KaVXLI9171zwgcPgkEafe169X/2Gqtu2y2xpVjg8nKjfrplKyW5tTf4+Rkc1+ovnVNm+Q7m77lDh3ruUWrRQdlurzEzmgtc98jwFw8PyT5xUadNmDfz9P6i2Z5+iWk32zBky3AZaLAW+wnKlgQsRqrb/gHr/j7/S6JNPq/kjH1Jm7RrZnR0yp6jCdhSGCkdGFAwOyhB7gAECMBhAA8Bkf5/lcslngKuVRD9f239APV/+y/rfihGYR1/YkHzg7AcNPZi08rnxlxRHkWr7DqjnP35ZpedeUPED71X2ulWympviHVe1qsq+/Rp99gUN/fAnqu7YJZ2ZyfOOn1BYrtSPISZ3WrcM89pfxRDVahr96dPyDhxS04c/qPw9d8qdPSte8ApD+QODqmzfoeGnntbQD36kcKC+dDiqVFU7dkzO9Gmxj8VIp+V0tDeY5sN6i6Tv/qOGf/BjpVYuU2bVCrnTp8lqa6tvQXBdyfMUDg3LO3FS1X37Vd60Wd7Bw+cs67faWxtq7RR6voKRBitTR/V906XnN6j8ymalb1it/G23KrP6OrmzZ8nuaL/olRFhpSK/r19+T4+qu/eqsn2HSi9vkrdnH1/QeMczti1cFXEacLnYHe0qvOt+TgRwjaju2q3SSxvf8eeh8MC9sjs7pJizLVEQqPza66q+tu2Keh/uvDnK3nSDDMdNdh/s36/yho2xw7Mzf64yq1cpc8MapZYskTu9W1ZTk8wzS2rDWq0+g9dzWrWDB1Xe+Gr9fG3feV6lanfhfGXXrE4UasKRYQ395IkxC2gV3nWf7I6OxOfPO3FCpZc2KhwajvfgpFhQ9qYb5HQn36fpnzql4cefjD8AzGaUXrlC6ZXLlLl+jVKLFsppb5OZzcqwrPqsYaWiYHBQ3rETqmzbrvIrr6qyfae8Q0eks66t4TjK3rZO7owZiUJsZccOlTdtmcQnT6bMfK7+UMh1JM9XODyscGR0zD3D+fc8oO4/+p/kdCa7vn5/v07+5z/X0Pcem5wBuevImTNb7uyZcmfNlLtkkZzZs2S1NMtuapaVy9YrZ78xwx1FijxPYa2msFxRMDSsYHBAfm+f/IOH5R06Iq+3V35Pj7yDh+vnYAKpxQuVvenG5Hne9zTy/IvxK8wDBGAAAPCOZ5oyiwVZzU0ys9l6+H1jWXQY1gf75bKCkRGFfQNsmZmsgaDryGxpllUsykyn6zOPhnGmyFOgqFZTWCorGBhQODysa2qduGmq7QufU/u//kzi5eC1Y8d17I//V5WfeW7yj8uyZBULMvN5GSlXhuvKtO0z++qNcx4iRGFYX6nh1Sugh5WqopFRhZXKFdlzG7gSsAQaAABcfmGocGBQ4cAg5+ISimqegpOnFJw89Y57787c2creuLahvdDh0JC8/Qen5sCCQEH/gIL+AW5QYArQBgkAAADvKEY6pfxdtyuzakXyF4ehvOMn5B87zokECMAAAADAlTz6NZVesUzNv/YrsorFxC+P/EDVPXulIORcAlchlkADAADgima1tSr/4APyDx9VZetrCkdLijwv8T5Xw3GUWr5EHb/3qNKLFjV0LGGlotHnXuSiAARgAAAAYAoGrB3tavv0J2S3tqiya7dGfv5LlTdsVNDfr2BoWOHgUD0QXzD1GjILedmdHcquv0WtH/8NuXPnNNR7WpIqe/decRXbARCAAQAAcC0wTTnTpsmdMV2GbSt3w/XKXb9WweioaocOq7p3n2o798g/dUphpVKvhOz7MgxDRsqVXWySu2yxcrfcpNS8uTJct+FDiYJAw//jpwpLJa4LQAAGAAAAJpfhOEqvWVlv0fTm/2jIyueVWb5MmeXLpPdH9fBbriisnhWAXVdWIV+v9GwYF30stQMHVXr2BUU1jwsDEIABAACAyQ7AttIrJ6jWbBgyMxmZmcyUHUdYKmnwH/9ZtYOHuCjAVYwq0AAAALhyB6v5vNILF1zWY4h8XyPPPKuhf3lcUbnCRQEIwAAAAMDkS61eKaupePkOIAxV2b5DvV/7hryDh7kgAAEYAAAAmBqZlStkOM5l+/u1Y8fV+9d/q8qmLVwM4BrAHmAAAABcmUxT6SWLzi2AdYlEQaDawUM69X/+3xp5+pnEPYcBEIABAACA2Jz5c+XMnNFwz97Gkm+kYHhEoxteUt/ffkOVTVsU+T4XAyAAAwAAAFMYgGfPlJnNXLK/F9Vqquzeo8F/+pGGfvgTBadOcxEAAjAAAAAw9Wo7d6v3b76m/LvuVXbFClnNTVPyd8JyReUdOzT6zLMafe4FVbe8zqwvcI0yti1cxYYGAAAAXJmDVceW1dkpp7tLqVXLlbnxemUWLpDd0V7fG2xZMkxTMk0ZhiEZxvm/JIoURZEUhorCUPJ9haWyaseOqbR5q0rPPKvagYPye07R5gggAAMAAACXe9RqyLBtGa4jI5WS3d0lZ+F8ubNmyG5rk9XcJCuTkZnJnLtnOAgUVioKRksKBgbknTqt2r79qu3YrWBgUJHnKarVpDDkHAMEYAAAAAAArg30AQYAAAAAEIABAAAAACAAAwAAAABAAAYAAAAAgAAMAAAAAAABGAAAAAAAAjAAAAAAAARgAAAAAAAIwAAAAAAAAjAAAAAAAARgAAAAAAAIwAAAAAAAEIABAAAAACAAAwAAAABAAAYAAAAAgAAMAAAAAAABGAAAAAAAAjAAAAAAgAAMAAAAAAABGAAAAAAAAjAAAAAAAARgAAAAAAAIwAAAAAAAEIABAAAAACAAAwAAAABAAAYAAAAAgAAMAAAAACAAAwAAAABAAAYAAAAAgAAMAAAAAAABGAAAAAAAAjAAAAAAAARgAAAAAAAIwAAAAAAAEIABAAAAACAAAwAAAAAIwAAAAAAAEIABAAAAACAAAwAAAABAAAYAAAAAgAAMAAAAAAABGAAAAAAAAjAAAAAAAARgAAAAAAAIwAAAAAAAAjAAAAAAAARgAAAAAAAIwAAAAAAAEIABAAAAACAAAwAAAABAAAYAAAAAgAAMAAAAAAABGAAAAAAAAjAAAAAAgAAMAAAAAAABGAAAAAAAAjAAAAAAAARgAAAAAAAIwAAAAAAAEIABAAAAACAAAwAAAABAAAYAAAAAgAAMAAAAACAAAwAAAABAAAYAAAAAgAAMAAAAAAABGAAAAAAAAjAAAAAAAARgAAAAAAAIwAAAAAAAEIABAAAAACAAAwAAAAAIwAAAAAAAEIABAAAAACAAAwAAAABAAAYAAAAAgAAMAAAAAAABGAAAAAAAAjAAAAAAAARgAAAAAAAIwAAAAAAAAjAAAAAAAARgAAAAAAAIwAAAAAAAEIABAAAAACAAAwAAAABAAAYAAAAAgAAMAAAAAAABGAAAAABAAOYUAAAAAAAIwAAAAAAAEIABAAAAACAAAwAAAABAAAYAAAAAgAAMAAAAAAABGAAAAAAAAjAAAAAAAARgAAAAAAABGAAAAAAAAjAAAAAAAARgAAAAAAAIwAAAAAAAEIABAAAAACAAAwAAAABAAAYAAAAAgAAMAAAAAAABGAAAAABAAAYAAAAAgAAMAAAAAAABGAAAAACAq8H/D0Pr4kQjepFBAAAAJXRFWHRkYXRlOmNyZWF0ZQAyMDE5LTA1LTI3VDE5OjE0OjMyKzAwOjAwCLJ66QAAACV0RVh0ZGF0ZTptb2RpZnkAMjAxOS0wNS0yN1QxOToxNDozMiswMDowMHnvwlUAAAAASUVORK5CYII=;" vertex="1" parent="1">
                    <mxGeometry x="500" y="501.20000000000005" width="73.5" height="38.59" as="geometry"/>
                </mxCell>
                <mxCell id="48" value="" style="endArrow=classic;html=1;entryX=0;entryY=0.5;entryDx=0;entryDy=0;entryPerimeter=0;" edge="1" parent="1" source="6" target="47">
                    <mxGeometry width="50" height="50" relative="1" as="geometry">
                        <mxPoint x="440" y="520.9166666666667" as="sourcePoint"/>
                        <mxPoint x="640" y="520.5" as="targetPoint"/>
                    </mxGeometry>
                </mxCell>
                <mxCell id="50" value="" style="endArrow=none;dashed=1;html=1;entryX=0;entryY=0.79;entryDx=0;entryDy=0;entryPerimeter=0;" edge="1" parent="1" source="6" target="7">
                    <mxGeometry width="50" height="50" relative="1" as="geometry">
                        <mxPoint x="490" y="430" as="sourcePoint"/>
                        <mxPoint x="540" y="380" as="targetPoint"/>
                    </mxGeometry>
                </mxCell>
                <mxCell id="53" value="" style="endArrow=none;html=1;" edge="1" parent="1" target="44">
                    <mxGeometry width="50" height="50" relative="1" as="geometry">
                        <mxPoint x="190" y="610" as="sourcePoint"/>
                        <mxPoint x="540" y="460" as="targetPoint"/>
                    </mxGeometry>
                </mxCell>
                <mxCell id="54" value="SecretManager&lt;br&gt;の情報を引き受けるロール&lt;br&gt;" style="text;html=1;strokeColor=none;fillColor=none;align=center;verticalAlign=middle;whiteSpace=wrap;rounded=0;" vertex="1" parent="1">
                    <mxGeometry x="140" y="620" width="40" height="20" as="geometry"/>
                </mxCell>
            </root>
        </mxGraphModel>
    </diagram>
</mxfile>
